{
	"asset":{
		"generator":"Khronos glTF Blender I/O v5.0.21",
		"version":"2.0"
	},
	"scene":0,
	"scenes":[
		{
			"name":"Scene",
			"nodes":[
				0,
				1
			]
		}
	],
	"nodes":[
		{
			"mesh":0,
			"name":"Sphere"
		},
		{
			"mesh":1,
			"name":"Plane",
			"rotation":[
				0.014423500746488571,
				-0.04353364184498787,
				-0.9980685114860535,
				0.041904937475919724
			],
			"scale":[
				1.1290233135223389,
				1.1290233135223389,
				1.1290233135223389
			],
			"translation":[
				0,
				1.3407257795333862,
				-1.3417854309082031
			]
		}
	],
	"materials":[
		{
			"doubleSided":true,
			"name":"Material.002",
			"pbrMetallicRoughness":{
				"baseColorFactor":[
					0,
					0,
					0,
					1
				],
				"metallicFactor":0
			}
		},
		{
			"alphaMode":"BLEND",
			"doubleSided":true,
			"name":"Material.001",
			"pbrMetallicRoughness":{
				"baseColorTexture":{
					"index":0
				},
				"metallicFactor":0,
				"roughnessFactor":0.5
			}
		}
	],
	"meshes":[
		{
			"name":"Sphere",
			"primitives":[
				{
					"attributes":{
						"POSITION":0,
						"NORMAL":1,
						"TEXCOORD_0":2
					},
					"indices":3,
					"material":0
				}
			]
		},
		{
			"name":"Plane",
			"primitives":[
				{
					"attributes":{
						"POSITION":4,
						"NORMAL":5,
						"TEXCOORD_0":6
					},
					"indices":7,
					"material":1
				}
			]
		}
	],
	"textures":[
		{
			"sampler":0,
			"source":0
		}
	],
	"images":[
		{
			"bufferView":8,
			"mimeType":"image/png",
			"name":"New Piskel-1.png (6)"
		}
	],
	"accessors":[
		{
			"bufferView":0,
			"componentType":5126,
			"count":1504,
			"max":[
				0.8980790376663208,
				2.2182140350341797,
				0.9968817830085754
			],
			"min":[
				-0.9973594546318054,
				-1.7957841157913208,
				-1.333482027053833
			],
			"type":"VEC3"
		},
		{
			"bufferView":1,
			"componentType":5126,
			"count":1504,
			"type":"VEC3"
		},
		{
			"bufferView":2,
			"componentType":5126,
			"count":1504,
			"type":"VEC2"
		},
		{
			"bufferView":3,
			"componentType":5123,
			"count":2208,
			"type":"SCALAR"
		},
		{
			"bufferView":4,
			"componentType":5126,
			"count":4,
			"max":[
				0.5224117040634155,
				0.5828436017036438,
				0.015466171316802502
			],
			"min":[
				-0.6100912094116211,
				-0.5504043698310852,
				-0.04017643257975578
			],
			"type":"VEC3"
		},
		{
			"bufferView":5,
			"componentType":5126,
			"count":4,
			"type":"VEC3"
		},
		{
			"bufferView":6,
			"componentType":5126,
			"count":4,
			"type":"VEC2"
		},
		{
			"bufferView":7,
			"componentType":5123,
			"count":6,
			"type":"SCALAR"
		}
	],
	"bufferViews":[
		{
			"buffer":0,
			"byteLength":18048,
			"byteOffset":0,
			"target":34962
		},
		{
			"buffer":0,
			"byteLength":18048,
			"byteOffset":18048,
			"target":34962
		},
		{
			"buffer":0,
			"byteLength":12032,
			"byteOffset":36096,
			"target":34962
		},
		{
			"buffer":0,
			"byteLength":4416,
			"byteOffset":48128,
			"target":34963
		},
		{
			"buffer":0,
			"byteLength":48,
			"byteOffset":52544,
			"target":34962
		},
		{
			"buffer":0,
			"byteLength":48,
			"byteOffset":52592,
			"target":34962
		},
		{
			"buffer":0,
			"byteLength":32,
			"byteOffset":52640,
			"target":34962
		},
		{
			"buffer":0,
			"byteLength":12,
			"byteOffset":52672,
			"target":34963
		},
		{
			"buffer":0,
			"byteLength":372,
			"byteOffset":52684
		}
	],
	"samplers":[
		{
			"magFilter":9728,
			"minFilter":9984
		}
	],
	"buffers":[
		{
			"byteLength":53056,
			"uri":"data:application/octet-stream;base64,"
		}
	]
}
