{
	"asset":{
		"generator":"Khronos glTF Blender I/O v4.4.56",
		"version":"2.0"
	},
	"scene":0,
	"scenes":[
		{
			"name":"Scene",
			"nodes":[
				0,
				1,
				2,
				3,
				4,
				5,
				6,
				7,
				8,
				9,
				10
			]
		}
	],
	"nodes":[
		{
			"mesh":0,
			"name":"headMesh",
			"rotation":[
				0.7071068286895752,
				0,
				0,
				0.7071068286895752
			]
		},
		{
			"mesh":1,
			"name":"headMesh.001",
			"rotation":[
				0.7071068286895752,
				0,
				0,
				0.7071068286895752
			]
		},
		{
			"mesh":2,
			"name":"headMesh.002",
			"rotation":[
				0.7071068286895752,
				0,
				0,
				0.7071068286895752
			]
		},
		{
			"mesh":3,
			"name":"headMesh.003",
			"rotation":[
				0.7071068286895752,
				0,
				0,
				0.7071068286895752
			]
		},
		{
			"mesh":4,
			"name":"headMesh.004",
			"rotation":[
				0.7071068286895752,
				0,
				0,
				0.7071068286895752
			]
		},
		{
			"mesh":5,
			"name":"headMesh.005",
			"rotation":[
				0.7071068286895752,
				0,
				0,
				0.7071068286895752
			]
		},
		{
			"mesh":6,
			"name":"headMesh.006",
			"rotation":[
				0.7071068286895752,
				0,
				0,
				0.7071068286895752
			]
		},
		{
			"mesh":7,
			"name":"headMesh.007",
			"rotation":[
				0.7071068286895752,
				0,
				0,
				0.7071068286895752
			]
		},
		{
			"mesh":8,
			"name":"headMesh.008",
			"rotation":[
				0.7071068286895752,
				0,
				0,
				0.7071068286895752
			]
		},
		{
			"mesh":9,
			"name":"headMesh.010",
			"rotation":[
				0.7071068286895752,
				0,
				0,
				0.7071068286895752
			]
		},
		{
			"mesh":10,
			"name":"headMesh.012",
			"rotation":[
				0.7071068286895752,
				0,
				0,
				0.7071068286895752
			]
		}
	],
	"materials":[
		{
			"doubleSided":true,
			"name":"Material.001",
			"pbrMetallicRoughness":{
				"baseColorTexture":{
					"index":0
				},
				"metallicFactor":0,
				"roughnessFactor":0.5
			}
		},
		{
			"doubleSided":true,
			"name":"Material.005",
			"pbrMetallicRoughness":{
				"baseColorFactor":[
					0.18055231869220734,
					0.11227807402610779,
					0.0731520727276802,
					1
				],
				"metallicFactor":0,
				"roughnessFactor":0.5
			}
		},
		{
			"doubleSided":true,
			"name":"Material.004",
			"pbrMetallicRoughness":{
				"baseColorFactor":[
					0.11095526814460754,
					0.11095526814460754,
					0.11095526814460754,
					1
				],
				"metallicFactor":0,
				"roughnessFactor":0.5
			}
		},
		{
			"doubleSided":true,
			"name":"Material.002",
			"pbrMetallicRoughness":{
				"baseColorTexture":{
					"index":1
				},
				"metallicFactor":0,
				"roughnessFactor":0.13779526948928833
			}
		}
	],
	"meshes":[
		{
			"name":"headMesh",
			"primitives":[
				{
					"attributes":{
						"POSITION":0,
						"NORMAL":1,
						"COLOR_0":2
					},
					"indices":3
				}
			]
		},
		{
			"name":"headMesh.001",
			"primitives":[
				{
					"attributes":{
						"POSITION":4,
						"NORMAL":5,
						"COLOR_0":6
					},
					"indices":7
				}
			]
		},
		{
			"name":"headMesh.002",
			"primitives":[
				{
					"attributes":{
						"POSITION":8,
						"NORMAL":9,
						"TEXCOORD_0":10,
						"COLOR_0":11,
						"COLOR_1":12
					},
					"indices":13,
					"material":0
				}
			]
		},
		{
			"name":"headMesh.003",
			"primitives":[
				{
					"attributes":{
						"POSITION":14,
						"NORMAL":15,
						"COLOR_0":16,
						"COLOR_1":17
					},
					"indices":18,
					"material":1
				}
			]
		},
		{
			"name":"headMesh.004",
			"primitives":[
				{
					"attributes":{
						"POSITION":19,
						"NORMAL":20,
						"COLOR_0":21,
						"COLOR_1":22
					},
					"indices":23,
					"material":1
				}
			]
		},
		{
			"name":"headMesh.005",
			"primitives":[
				{
					"attributes":{
						"POSITION":24,
						"NORMAL":25,
						"COLOR_0":26,
						"COLOR_1":27
					},
					"indices":28,
					"material":2
				}
			]
		},
		{
			"name":"headMesh.006",
			"primitives":[
				{
					"attributes":{
						"POSITION":29,
						"NORMAL":30,
						"COLOR_0":31,
						"COLOR_1":32
					},
					"indices":33,
					"material":2
				}
			]
		},
		{
			"name":"headMesh.007",
			"primitives":[
				{
					"attributes":{
						"POSITION":34,
						"NORMAL":35,
						"COLOR_0":36
					},
					"indices":37
				}
			]
		},
		{
			"name":"headMesh.008",
			"primitives":[
				{
					"attributes":{
						"POSITION":38,
						"NORMAL":39,
						"COLOR_0":40
					},
					"indices":41
				}
			]
		},
		{
			"name":"headMesh.010",
			"primitives":[
				{
					"attributes":{
						"POSITION":42,
						"NORMAL":43,
						"TEXCOORD_0":44,
						"COLOR_0":45,
						"COLOR_1":46
					},
					"indices":47,
					"material":3
				}
			]
		},
		{
			"name":"headMesh.012",
			"primitives":[
				{
					"attributes":{
						"POSITION":48,
						"NORMAL":49,
						"TEXCOORD_0":50,
						"COLOR_0":51,
						"COLOR_1":52
					},
					"indices":53,
					"material":3
				}
			]
		}
	],
	"textures":[
		{
			"sampler":0,
			"source":0
		},
		{
			"sampler":0,
			"source":1
		}
	],
	"images":[
		{
			"mimeType":"image/png",
			"name":"face",
			"uri":"face.png"
		},
		{
			"mimeType":"image/png",
			"name":"eyes",
			"uri":"eyes.png"
		}
	],
	"accessors":[
		{
			"bufferView":0,
			"componentType":5126,
			"count":150810,
			"max":[
				-0.6295698285102844,
				0.009992050006985664,
				0.6676008701324463
			],
			"min":[
				-0.9908030033111572,
				-0.4369412660598755,
				0.10107956826686859
			],
			"type":"VEC3"
		},
		{
			"bufferView":1,
			"componentType":5126,
			"count":150810,
			"type":"VEC3"
		},
		{
			"bufferView":2,
			"componentType":5123,
			"count":150810,
			"normalized":true,
			"type":"VEC4"
		},
		{
			"bufferView":3,
			"componentType":5125,
			"count":150900,
			"type":"SCALAR"
		},
		{
			"bufferView":4,
			"componentType":5126,
			"count":150994,
			"max":[
				0.9908175468444824,
				0.009960370138287544,
				0.6675416231155396
			],
			"min":[
				0.6295627951622009,
				-0.436958909034729,
				0.10110875219106674
			],
			"type":"VEC3"
		},
		{
			"bufferView":5,
			"componentType":5126,
			"count":150994,
			"type":"VEC3"
		},
		{
			"bufferView":6,
			"componentType":5123,
			"count":150994,
			"normalized":true,
			"type":"VEC4"
		},
		{
			"bufferView":7,
			"componentType":5125,
			"count":151116,
			"type":"SCALAR"
		},
		{
			"bufferView":8,
			"componentType":5126,
			"count":1105346,
			"max":[
				1.5330631732940674,
				1.1302188634872437,
				3.020296096801758
			],
			"min":[
				-1.5330562591552734,
				-1.155287742614746,
				-1.1523432731628418
			],
			"type":"VEC3"
		},
		{
			"bufferView":9,
			"componentType":5126,
			"count":1105346,
			"type":"VEC3"
		},
		{
			"bufferView":10,
			"componentType":5126,
			"count":1105346,
			"type":"VEC2"
		},
		{
			"bufferView":11,
			"componentType":5121,
			"count":1105346,
			"normalized":true,
			"type":"VEC4"
		},
		{
			"bufferView":12,
			"componentType":5123,
			"count":1105346,
			"normalized":true,
			"type":"VEC4"
		},
		{
			"bufferView":13,
			"componentType":5125,
			"count":1107828,
			"type":"SCALAR"
		},
		{
			"bufferView":14,
			"componentType":5126,
			"count":20436,
			"max":[
				-0.12305402010679245,
				0.9700661301612854,
				0.0842871218919754
			],
			"min":[
				-0.6332765221595764,
				0.6698610186576843,
				-0.08995015919208527
			],
			"type":"VEC3"
		},
		{
			"bufferView":15,
			"componentType":5126,
			"count":20436,
			"type":"VEC3"
		},
		{
			"bufferView":16,
			"componentType":5121,
			"count":20436,
			"normalized":true,
			"type":"VEC4"
		},
		{
			"bufferView":17,
			"componentType":5123,
			"count":20436,
			"normalized":true,
			"type":"VEC4"
		},
		{
			"bufferView":18,
			"componentType":5123,
			"count":20448,
			"type":"SCALAR"
		},
		{
			"bufferView":19,
			"componentType":5126,
			"count":20446,
			"max":[
				0.6332905888557434,
				0.9701164364814758,
				0.08424223214387894
			],
			"min":[
				0.12303660064935684,
				0.669880211353302,
				-0.08996804058551788
			],
			"type":"VEC3"
		},
		{
			"bufferView":20,
			"componentType":5126,
			"count":20446,
			"type":"VEC3"
		},
		{
			"bufferView":21,
			"componentType":5121,
			"count":20446,
			"normalized":true,
			"type":"VEC4"
		},
		{
			"bufferView":22,
			"componentType":5123,
			"count":20446,
			"normalized":true,
			"type":"VEC4"
		},
		{
			"bufferView":23,
			"componentType":5123,
			"count":20454,
			"type":"SCALAR"
		},
		{
			"bufferView":24,
			"componentType":5126,
			"count":2658,
			"max":[
				-0.2284889966249466,
				0.8808305263519287,
				0.2046908736228943
			],
			"min":[
				-0.6456634998321533,
				0.648886501789093,
				0.09025262296199799
			],
			"type":"VEC3"
		},
		{
			"bufferView":25,
			"componentType":5126,
			"count":2658,
			"type":"VEC3"
		},
		{
			"bufferView":26,
			"componentType":5121,
			"count":2658,
			"normalized":true,
			"type":"VEC4"
		},
		{
			"bufferView":27,
			"componentType":5123,
			"count":2658,
			"normalized":true,
			"type":"VEC4"
		},
		{
			"bufferView":28,
			"componentType":5123,
			"count":2658,
			"type":"SCALAR"
		},
		{
			"bufferView":29,
			"componentType":5126,
			"count":2658,
			"max":[
				0.6456595659255981,
				0.8808292746543884,
				0.20468667149543762
			],
			"min":[
				0.22848762571811676,
				0.6488866209983826,
				0.09024277329444885
			],
			"type":"VEC3"
		},
		{
			"bufferView":30,
			"componentType":5126,
			"count":2658,
			"type":"VEC3"
		},
		{
			"bufferView":31,
			"componentType":5121,
			"count":2658,
			"normalized":true,
			"type":"VEC4"
		},
		{
			"bufferView":32,
			"componentType":5123,
			"count":2658,
			"normalized":true,
			"type":"VEC4"
		},
		{
			"bufferView":33,
			"componentType":5123,
			"count":2658,
			"type":"SCALAR"
		},
		{
			"bufferView":34,
			"componentType":5126,
			"count":966,
			"max":[
				0.5883204340934753,
				0.7798510789871216,
				0.24932365119457245
			],
			"min":[
				0.4457263648509979,
				0.6339576244354248,
				0.16299495100975037
			],
			"type":"VEC3"
		},
		{
			"bufferView":35,
			"componentType":5126,
			"count":966,
			"type":"VEC3"
		},
		{
			"bufferView":36,
			"componentType":5123,
			"count":966,
			"normalized":true,
			"type":"VEC4"
		},
		{
			"bufferView":37,
			"componentType":5123,
			"count":966,
			"type":"SCALAR"
		},
		{
			"bufferView":38,
			"componentType":5126,
			"count":972,
			"max":[
				-0.44471505284309387,
				0.7800081372261047,
				0.24960492551326752
			],
			"min":[
				-0.588322639465332,
				0.6339571475982666,
				0.16299520432949066
			],
			"type":"VEC3"
		},
		{
			"bufferView":39,
			"componentType":5126,
			"count":972,
			"type":"VEC3"
		},
		{
			"bufferView":40,
			"componentType":5123,
			"count":972,
			"normalized":true,
			"type":"VEC4"
		},
		{
			"bufferView":41,
			"componentType":5123,
			"count":972,
			"type":"SCALAR"
		},
		{
			"bufferView":42,
			"componentType":5126,
			"count":17877,
			"max":[
				-0.1556713730096817,
				0.8143393993377686,
				0.3454819321632385
			],
			"min":[
				-0.5496459007263184,
				0.40304645895957947,
				-0.04843784123659134
			],
			"type":"VEC3"
		},
		{
			"bufferView":43,
			"componentType":5126,
			"count":17877,
			"type":"VEC3"
		},
		{
			"bufferView":44,
			"componentType":5126,
			"count":17877,
			"type":"VEC2"
		},
		{
			"bufferView":45,
			"componentType":5121,
			"count":17877,
			"normalized":true,
			"type":"VEC4"
		},
		{
			"bufferView":46,
			"componentType":5123,
			"count":17877,
			"normalized":true,
			"type":"VEC4"
		},
		{
			"bufferView":47,
			"componentType":5123,
			"count":107250,
			"type":"SCALAR"
		},
		{
			"bufferView":48,
			"componentType":5126,
			"count":17978,
			"max":[
				0.5496424436569214,
				0.8143138289451599,
				0.3455154597759247
			],
			"min":[
				0.15566952526569366,
				0.4030590355396271,
				-0.048437561839818954
			],
			"type":"VEC3"
		},
		{
			"bufferView":49,
			"componentType":5126,
			"count":17978,
			"type":"VEC3"
		},
		{
			"bufferView":50,
			"componentType":5126,
			"count":17978,
			"type":"VEC2"
		},
		{
			"bufferView":51,
			"componentType":5121,
			"count":17978,
			"normalized":true,
			"type":"VEC4"
		},
		{
			"bufferView":52,
			"componentType":5123,
			"count":17978,
			"normalized":true,
			"type":"VEC4"
		},
		{
			"bufferView":53,
			"componentType":5123,
			"count":107856,
			"type":"SCALAR"
		}
	],
	"bufferViews":[
		{
			"buffer":0,
			"byteLength":1809720,
			"byteOffset":0,
			"target":34962
		},
		{
			"buffer":0,
			"byteLength":1809720,
			"byteOffset":1809720,
			"target":34962
		},
		{
			"buffer":0,
			"byteLength":1206480,
			"byteOffset":3619440,
			"target":34962
		},
		{
			"buffer":0,
			"byteLength":603600,
			"byteOffset":4825920,
			"target":34963
		},
		{
			"buffer":0,
			"byteLength":1811928,
			"byteOffset":5429520,
			"target":34962
		},
		{
			"buffer":0,
			"byteLength":1811928,
			"byteOffset":7241448,
			"target":34962
		},
		{
			"buffer":0,
			"byteLength":1207952,
			"byteOffset":9053376,
			"target":34962
		},
		{
			"buffer":0,
			"byteLength":604464,
			"byteOffset":10261328,
			"target":34963
		},
		{
			"buffer":0,
			"byteLength":13264152,
			"byteOffset":10865792,
			"target":34962
		},
		{
			"buffer":0,
			"byteLength":13264152,
			"byteOffset":24129944,
			"target":34962
		},
		{
			"buffer":0,
			"byteLength":8842768,
			"byteOffset":37394096,
			"target":34962
		},
		{
			"buffer":0,
			"byteLength":4421384,
			"byteOffset":46236864,
			"target":34962
		},
		{
			"buffer":0,
			"byteLength":8842768,
			"byteOffset":50658248,
			"target":34962
		},
		{
			"buffer":0,
			"byteLength":4431312,
			"byteOffset":59501016,
			"target":34963
		},
		{
			"buffer":0,
			"byteLength":245232,
			"byteOffset":63932328,
			"target":34962
		},
		{
			"buffer":0,
			"byteLength":245232,
			"byteOffset":64177560,
			"target":34962
		},
		{
			"buffer":0,
			"byteLength":81744,
			"byteOffset":64422792,
			"target":34962
		},
		{
			"buffer":0,
			"byteLength":163488,
			"byteOffset":64504536,
			"target":34962
		},
		{
			"buffer":0,
			"byteLength":40896,
			"byteOffset":64668024,
			"target":34963
		},
		{
			"buffer":0,
			"byteLength":245352,
			"byteOffset":64708920,
			"target":34962
		},
		{
			"buffer":0,
			"byteLength":245352,
			"byteOffset":64954272,
			"target":34962
		},
		{
			"buffer":0,
			"byteLength":81784,
			"byteOffset":65199624,
			"target":34962
		},
		{
			"buffer":0,
			"byteLength":163568,
			"byteOffset":65281408,
			"target":34962
		},
		{
			"buffer":0,
			"byteLength":40908,
			"byteOffset":65444976,
			"target":34963
		},
		{
			"buffer":0,
			"byteLength":31896,
			"byteOffset":65485884,
			"target":34962
		},
		{
			"buffer":0,
			"byteLength":31896,
			"byteOffset":65517780,
			"target":34962
		},
		{
			"buffer":0,
			"byteLength":10632,
			"byteOffset":65549676,
			"target":34962
		},
		{
			"buffer":0,
			"byteLength":21264,
			"byteOffset":65560308,
			"target":34962
		},
		{
			"buffer":0,
			"byteLength":5316,
			"byteOffset":65581572,
			"target":34963
		},
		{
			"buffer":0,
			"byteLength":31896,
			"byteOffset":65586888,
			"target":34962
		},
		{
			"buffer":0,
			"byteLength":31896,
			"byteOffset":65618784,
			"target":34962
		},
		{
			"buffer":0,
			"byteLength":10632,
			"byteOffset":65650680,
			"target":34962
		},
		{
			"buffer":0,
			"byteLength":21264,
			"byteOffset":65661312,
			"target":34962
		},
		{
			"buffer":0,
			"byteLength":5316,
			"byteOffset":65682576,
			"target":34963
		},
		{
			"buffer":0,
			"byteLength":11592,
			"byteOffset":65687892,
			"target":34962
		},
		{
			"buffer":0,
			"byteLength":11592,
			"byteOffset":65699484,
			"target":34962
		},
		{
			"buffer":0,
			"byteLength":7728,
			"byteOffset":65711076,
			"target":34962
		},
		{
			"buffer":0,
			"byteLength":1932,
			"byteOffset":65718804,
			"target":34963
		},
		{
			"buffer":0,
			"byteLength":11664,
			"byteOffset":65720736,
			"target":34962
		},
		{
			"buffer":0,
			"byteLength":11664,
			"byteOffset":65732400,
			"target":34962
		},
		{
			"buffer":0,
			"byteLength":7776,
			"byteOffset":65744064,
			"target":34962
		},
		{
			"buffer":0,
			"byteLength":1944,
			"byteOffset":65751840,
			"target":34963
		},
		{
			"buffer":0,
			"byteLength":214524,
			"byteOffset":65753784,
			"target":34962
		},
		{
			"buffer":0,
			"byteLength":214524,
			"byteOffset":65968308,
			"target":34962
		},
		{
			"buffer":0,
			"byteLength":143016,
			"byteOffset":66182832,
			"target":34962
		},
		{
			"buffer":0,
			"byteLength":71508,
			"byteOffset":66325848,
			"target":34962
		},
		{
			"buffer":0,
			"byteLength":143016,
			"byteOffset":66397356,
			"target":34962
		},
		{
			"buffer":0,
			"byteLength":214500,
			"byteOffset":66540372,
			"target":34963
		},
		{
			"buffer":0,
			"byteLength":215736,
			"byteOffset":66754872,
			"target":34962
		},
		{
			"buffer":0,
			"byteLength":215736,
			"byteOffset":66970608,
			"target":34962
		},
		{
			"buffer":0,
			"byteLength":143824,
			"byteOffset":67186344,
			"target":34962
		},
		{
			"buffer":0,
			"byteLength":71912,
			"byteOffset":67330168,
			"target":34962
		},
		{
			"buffer":0,
			"byteLength":143824,
			"byteOffset":67402080,
			"target":34962
		},
		{
			"buffer":0,
			"byteLength":215712,
			"byteOffset":67545904,
			"target":34963
		}
	],
	"samplers":[
		{
			"magFilter":9729,
			"minFilter":9987
		}
	],
	"buffers":[
		{
			"byteLength":67761616,
			"uri":"head.bin"
		}
	]
}
