{
	"asset":{
		"generator":"Khronos glTF Blender I/O v4.3.47",
		"version":"2.0"
	},
	"scene":0,
	"scenes":[
		{
			"name":"Scene",
			"nodes":[
				0,
				1,
				2,
				3,
				4,
				5,
				6,
				7,
				8,
				9
			]
		}
	],
	"nodes":[
		{
			"mesh":0,
			"name":"tower.001",
			"translation":[
				0,
				0.9939108490943909,
				0
			]
		},
		{
			"mesh":1,
			"name":"tower"
		},
		{
			"mesh":2,
			"name":"tower.002",
			"translation":[
				0,
				1.9706082344055176,
				0
			]
		},
		{
			"mesh":3,
			"name":"battlement.001",
			"translation":[
				-0.14881479740142822,
				0,
				0
			]
		},
		{
			"mesh":4,
			"name":"battlement.002",
			"translation":[
				-1.1468180418014526,
				0,
				0
			]
		},
		{
			"mesh":5,
			"name":"tower_edge.001",
			"translation":[
				0,
				1.6926908493041992,
				0
			]
		},
		{
			"mesh":6,
			"name":"battlement",
			"translation":[
				-2.128243923187256,
				0,
				0
			]
		},
		{
			"mesh":7,
			"name":"tower_edge",
			"translation":[
				0,
				0.7731495499610901,
				0
			]
		},
		{
			"mesh":8,
			"name":"tower_top",
			"translation":[
				0,
				2.927391290664673,
				0
			]
		},
		{
			"mesh":9,
			"name":"tower_edge.002",
			"translation":[
				0,
				2.554839611053467,
				0
			]
		}
	],
	"materials":[
		{
			"name":"bricks.001",
			"pbrMetallicRoughness":{
				"baseColorTexture":{
					"index":0
				},
				"metallicFactor":0.3499999940395355,
				"roughnessFactor":0.5
			}
		},
		{
			"name":"stones.001",
			"pbrMetallicRoughness":{
				"baseColorTexture":{
					"index":1
				},
				"metallicFactor":0.3499999940395355,
				"roughnessFactor":0.5
			}
		},
		{
			"name":"bricks",
			"pbrMetallicRoughness":{
				"baseColorTexture":{
					"index":2
				},
				"metallicFactor":0.3499999940395355,
				"roughnessFactor":0.5
			}
		},
		{
			"name":"stones",
			"pbrMetallicRoughness":{
				"baseColorTexture":{
					"index":3
				},
				"metallicFactor":0.3499999940395355,
				"roughnessFactor":0.5
			}
		},
		{
			"name":"bricks.002",
			"pbrMetallicRoughness":{
				"baseColorTexture":{
					"index":4
				},
				"metallicFactor":0.3499999940395355,
				"roughnessFactor":0.5
			}
		},
		{
			"name":"stones.002",
			"pbrMetallicRoughness":{
				"baseColorTexture":{
					"index":5
				},
				"metallicFactor":0.3499999940395355,
				"roughnessFactor":0.5
			}
		},
		{
			"name":"bricks.006",
			"pbrMetallicRoughness":{
				"baseColorTexture":{
					"index":6
				},
				"metallicFactor":0.3499999940395355,
				"roughnessFactor":0.5
			}
		},
		{
			"name":"stones.006",
			"pbrMetallicRoughness":{
				"baseColorTexture":{
					"index":7
				},
				"metallicFactor":0.3499999940395355,
				"roughnessFactor":0.5
			}
		},
		{
			"name":"bricks.007",
			"pbrMetallicRoughness":{
				"baseColorTexture":{
					"index":8
				},
				"metallicFactor":0.3499999940395355,
				"roughnessFactor":0.5
			}
		},
		{
			"name":"stones.007",
			"pbrMetallicRoughness":{
				"baseColorTexture":{
					"index":9
				},
				"metallicFactor":0.3499999940395355,
				"roughnessFactor":0.5
			}
		},
		{
			"name":"bricks.009",
			"pbrMetallicRoughness":{
				"baseColorTexture":{
					"index":10
				},
				"metallicFactor":0.3499999940395355,
				"roughnessFactor":0.5
			}
		},
		{
			"name":"bricks.005",
			"pbrMetallicRoughness":{
				"baseColorTexture":{
					"index":11
				},
				"metallicFactor":0.3499999940395355,
				"roughnessFactor":0.5
			}
		},
		{
			"name":"stones.005",
			"pbrMetallicRoughness":{
				"baseColorTexture":{
					"index":12
				},
				"metallicFactor":0.3499999940395355,
				"roughnessFactor":0.5
			}
		},
		{
			"name":"bricks.008",
			"pbrMetallicRoughness":{
				"baseColorTexture":{
					"index":13
				},
				"metallicFactor":0.3499999940395355,
				"roughnessFactor":0.5
			}
		},
		{
			"name":"stones.004",
			"pbrMetallicRoughness":{
				"baseColorTexture":{
					"index":14
				},
				"metallicFactor":0.3499999940395355,
				"roughnessFactor":0.5
			}
		},
		{
			"name":"bricks.004",
			"pbrMetallicRoughness":{
				"baseColorTexture":{
					"index":15
				},
				"metallicFactor":0.3499999940395355,
				"roughnessFactor":0.5
			}
		},
		{
			"name":"bricks.010",
			"pbrMetallicRoughness":{
				"baseColorTexture":{
					"index":16
				},
				"metallicFactor":0.3499999940395355,
				"roughnessFactor":0.5
			}
		}
	],
	"meshes":[
		{
			"name":"Mesh tower.001",
			"primitives":[
				{
					"attributes":{
						"POSITION":0,
						"NORMAL":1,
						"TEXCOORD_0":2
					},
					"indices":3,
					"material":0
				},
				{
					"attributes":{
						"POSITION":4,
						"NORMAL":5,
						"TEXCOORD_0":6
					},
					"indices":7,
					"material":1
				}
			]
		},
		{
			"name":"Mesh tower",
			"primitives":[
				{
					"attributes":{
						"POSITION":8,
						"NORMAL":9,
						"TEXCOORD_0":10
					},
					"indices":3,
					"material":2
				},
				{
					"attributes":{
						"POSITION":11,
						"NORMAL":12,
						"TEXCOORD_0":13
					},
					"indices":7,
					"material":3
				}
			]
		},
		{
			"name":"Mesh tower.002",
			"primitives":[
				{
					"attributes":{
						"POSITION":14,
						"NORMAL":15,
						"TEXCOORD_0":16
					},
					"indices":3,
					"material":4
				},
				{
					"attributes":{
						"POSITION":17,
						"NORMAL":18,
						"TEXCOORD_0":19
					},
					"indices":7,
					"material":5
				}
			]
		},
		{
			"name":"Mesh battlement.001",
			"primitives":[
				{
					"attributes":{
						"POSITION":20,
						"NORMAL":21,
						"TEXCOORD_0":22
					},
					"indices":23,
					"material":6
				},
				{
					"attributes":{
						"POSITION":24,
						"NORMAL":25,
						"TEXCOORD_0":26
					},
					"indices":27,
					"material":7
				}
			]
		},
		{
			"name":"Mesh battlement.002",
			"primitives":[
				{
					"attributes":{
						"POSITION":28,
						"NORMAL":29,
						"TEXCOORD_0":30
					},
					"indices":23,
					"material":8
				},
				{
					"attributes":{
						"POSITION":31,
						"NORMAL":32,
						"TEXCOORD_0":33
					},
					"indices":27,
					"material":9
				}
			]
		},
		{
			"name":"Mesh tower_edge.001",
			"primitives":[
				{
					"attributes":{
						"POSITION":34,
						"NORMAL":35,
						"TEXCOORD_0":36
					},
					"indices":37,
					"material":10
				}
			]
		},
		{
			"name":"Mesh battlement",
			"primitives":[
				{
					"attributes":{
						"POSITION":38,
						"NORMAL":39,
						"TEXCOORD_0":40
					},
					"indices":23,
					"material":11
				},
				{
					"attributes":{
						"POSITION":41,
						"NORMAL":42,
						"TEXCOORD_0":43
					},
					"indices":27,
					"material":12
				}
			]
		},
		{
			"name":"Mesh tower_edge",
			"primitives":[
				{
					"attributes":{
						"POSITION":44,
						"NORMAL":45,
						"TEXCOORD_0":46
					},
					"indices":37,
					"material":13
				}
			]
		},
		{
			"name":"Mesh Group 12",
			"primitives":[
				{
					"attributes":{
						"POSITION":47,
						"NORMAL":48,
						"TEXCOORD_0":49
					},
					"indices":50,
					"material":14
				},
				{
					"attributes":{
						"POSITION":51,
						"NORMAL":52,
						"TEXCOORD_0":53
					},
					"indices":54,
					"material":15
				}
			]
		},
		{
			"name":"Mesh tower_edge.002",
			"primitives":[
				{
					"attributes":{
						"POSITION":55,
						"NORMAL":56,
						"TEXCOORD_0":57
					},
					"indices":37,
					"material":16
				}
			]
		}
	],
	"textures":[
		{
			"sampler":0,
			"source":0
		},
		{
			"sampler":0,
			"source":1
		},
		{
			"sampler":0,
			"source":0
		},
		{
			"sampler":0,
			"source":1
		},
		{
			"sampler":0,
			"source":0
		},
		{
			"sampler":0,
			"source":1
		},
		{
			"sampler":0,
			"source":0
		},
		{
			"sampler":0,
			"source":1
		},
		{
			"sampler":0,
			"source":0
		},
		{
			"sampler":0,
			"source":1
		},
		{
			"sampler":0,
			"source":0
		},
		{
			"sampler":0,
			"source":0
		},
		{
			"sampler":0,
			"source":1
		},
		{
			"sampler":0,
			"source":0
		},
		{
			"sampler":0,
			"source":1
		},
		{
			"sampler":0,
			"source":0
		},
		{
			"sampler":0,
			"source":0
		}
	],
	"images":[
		{
			"mimeType":"image/png",
			"name":"cobblestoneAlternative",
			"uri":"cobblestoneAlternative.png"
		},
		{
			"mimeType":"image/png",
			"name":"cobblestone",
			"uri":"cobblestone.png"
		}
	],
	"accessors":[
		{
			"bufferView":0,
			"componentType":5126,
			"count":16,
			"max":[
				0.5,
				1,
				0.5
			],
			"min":[
				-0.5,
				0,
				-0.5
			],
			"type":"VEC3"
		},
		{
			"bufferView":1,
			"componentType":5126,
			"count":16,
			"type":"VEC3"
		},
		{
			"bufferView":2,
			"componentType":5126,
			"count":16,
			"type":"VEC2"
		},
		{
			"bufferView":3,
			"componentType":5123,
			"count":36,
			"type":"SCALAR"
		},
		{
			"bufferView":4,
			"componentType":5126,
			"count":18,
			"max":[
				0.5,
				1,
				0.5
			],
			"min":[
				-0.5,
				0,
				-0.5
			],
			"type":"VEC3"
		},
		{
			"bufferView":5,
			"componentType":5126,
			"count":18,
			"type":"VEC3"
		},
		{
			"bufferView":6,
			"componentType":5126,
			"count":18,
			"type":"VEC2"
		},
		{
			"bufferView":7,
			"componentType":5123,
			"count":48,
			"type":"SCALAR"
		},
		{
			"bufferView":8,
			"componentType":5126,
			"count":16,
			"max":[
				0.5,
				1,
				0.5
			],
			"min":[
				-0.5,
				0,
				-0.5
			],
			"type":"VEC3"
		},
		{
			"bufferView":9,
			"componentType":5126,
			"count":16,
			"type":"VEC3"
		},
		{
			"bufferView":10,
			"componentType":5126,
			"count":16,
			"type":"VEC2"
		},
		{
			"bufferView":11,
			"componentType":5126,
			"count":18,
			"max":[
				0.5,
				1,
				0.5
			],
			"min":[
				-0.5,
				0,
				-0.5
			],
			"type":"VEC3"
		},
		{
			"bufferView":12,
			"componentType":5126,
			"count":18,
			"type":"VEC3"
		},
		{
			"bufferView":13,
			"componentType":5126,
			"count":18,
			"type":"VEC2"
		},
		{
			"bufferView":14,
			"componentType":5126,
			"count":16,
			"max":[
				0.5,
				1,
				0.5
			],
			"min":[
				-0.5,
				0,
				-0.5
			],
			"type":"VEC3"
		},
		{
			"bufferView":15,
			"componentType":5126,
			"count":16,
			"type":"VEC3"
		},
		{
			"bufferView":16,
			"componentType":5126,
			"count":16,
			"type":"VEC2"
		},
		{
			"bufferView":17,
			"componentType":5126,
			"count":18,
			"max":[
				0.5,
				1,
				0.5
			],
			"min":[
				-0.5,
				0,
				-0.5
			],
			"type":"VEC3"
		},
		{
			"bufferView":18,
			"componentType":5126,
			"count":18,
			"type":"VEC3"
		},
		{
			"bufferView":19,
			"componentType":5126,
			"count":18,
			"type":"VEC2"
		},
		{
			"bufferView":20,
			"componentType":5126,
			"count":28,
			"max":[
				0.5,
				0.4000000059604645,
				0.6000000238418579
			],
			"min":[
				-0.5,
				0,
				0.30000001192092896
			],
			"type":"VEC3"
		},
		{
			"bufferView":21,
			"componentType":5126,
			"count":28,
			"type":"VEC3"
		},
		{
			"bufferView":22,
			"componentType":5126,
			"count":28,
			"type":"VEC2"
		},
		{
			"bufferView":23,
			"componentType":5123,
			"count":42,
			"type":"SCALAR"
		},
		{
			"bufferView":24,
			"componentType":5126,
			"count":62,
			"max":[
				0.5,
				0.4000000059604645,
				0.6000000238418579
			],
			"min":[
				-0.5,
				0,
				0.30000001192092896
			],
			"type":"VEC3"
		},
		{
			"bufferView":25,
			"componentType":5126,
			"count":62,
			"type":"VEC3"
		},
		{
			"bufferView":26,
			"componentType":5126,
			"count":62,
			"type":"VEC2"
		},
		{
			"bufferView":27,
			"componentType":5123,
			"count":126,
			"type":"SCALAR"
		},
		{
			"bufferView":28,
			"componentType":5126,
			"count":28,
			"max":[
				0.5,
				0.4000000059604645,
				0.6000000238418579
			],
			"min":[
				-0.5,
				0,
				0.30000001192092896
			],
			"type":"VEC3"
		},
		{
			"bufferView":29,
			"componentType":5126,
			"count":28,
			"type":"VEC3"
		},
		{
			"bufferView":30,
			"componentType":5126,
			"count":28,
			"type":"VEC2"
		},
		{
			"bufferView":31,
			"componentType":5126,
			"count":62,
			"max":[
				0.5,
				0.4000000059604645,
				0.6000000238418579
			],
			"min":[
				-0.5,
				0,
				0.30000001192092896
			],
			"type":"VEC3"
		},
		{
			"bufferView":32,
			"componentType":5126,
			"count":62,
			"type":"VEC3"
		},
		{
			"bufferView":33,
			"componentType":5126,
			"count":62,
			"type":"VEC2"
		},
		{
			"bufferView":34,
			"componentType":5126,
			"count":80,
			"max":[
				0.6000000238418579,
				0.4000000059604645,
				0.6000000238418579
			],
			"min":[
				-0.6000000238418579,
				0,
				-0.6000000238418579
			],
			"type":"VEC3"
		},
		{
			"bufferView":35,
			"componentType":5126,
			"count":80,
			"type":"VEC3"
		},
		{
			"bufferView":36,
			"componentType":5126,
			"count":80,
			"type":"VEC2"
		},
		{
			"bufferView":37,
			"componentType":5123,
			"count":132,
			"type":"SCALAR"
		},
		{
			"bufferView":38,
			"componentType":5126,
			"count":28,
			"max":[
				0.5,
				0.4000000059604645,
				0.6000000238418579
			],
			"min":[
				-0.5,
				0,
				0.30000001192092896
			],
			"type":"VEC3"
		},
		{
			"bufferView":39,
			"componentType":5126,
			"count":28,
			"type":"VEC3"
		},
		{
			"bufferView":40,
			"componentType":5126,
			"count":28,
			"type":"VEC2"
		},
		{
			"bufferView":41,
			"componentType":5126,
			"count":62,
			"max":[
				0.5,
				0.4000000059604645,
				0.6000000238418579
			],
			"min":[
				-0.5,
				0,
				0.30000001192092896
			],
			"type":"VEC3"
		},
		{
			"bufferView":42,
			"componentType":5126,
			"count":62,
			"type":"VEC3"
		},
		{
			"bufferView":43,
			"componentType":5126,
			"count":62,
			"type":"VEC2"
		},
		{
			"bufferView":44,
			"componentType":5126,
			"count":80,
			"max":[
				0.6000000238418579,
				0.4000000059604645,
				0.6000000238418579
			],
			"min":[
				-0.6000000238418579,
				0,
				-0.6000000238418579
			],
			"type":"VEC3"
		},
		{
			"bufferView":45,
			"componentType":5126,
			"count":80,
			"type":"VEC3"
		},
		{
			"bufferView":46,
			"componentType":5126,
			"count":80,
			"type":"VEC2"
		},
		{
			"bufferView":47,
			"componentType":5126,
			"count":228,
			"max":[
				0.6000000238418579,
				0.30000001192092896,
				0.6000000238418579
			],
			"min":[
				-0.6000000238418579,
				0,
				-0.6000000238418579
			],
			"type":"VEC3"
		},
		{
			"bufferView":48,
			"componentType":5126,
			"count":228,
			"type":"VEC3"
		},
		{
			"bufferView":49,
			"componentType":5126,
			"count":228,
			"type":"VEC2"
		},
		{
			"bufferView":50,
			"componentType":5123,
			"count":432,
			"type":"SCALAR"
		},
		{
			"bufferView":51,
			"componentType":5126,
			"count":112,
			"max":[
				0.6000000238418579,
				0.30000001192092896,
				0.6000000238418579
			],
			"min":[
				-0.6000000238418579,
				0.20000000298023224,
				-0.6000000238418579
			],
			"type":"VEC3"
		},
		{
			"bufferView":52,
			"componentType":5126,
			"count":112,
			"type":"VEC3"
		},
		{
			"bufferView":53,
			"componentType":5126,
			"count":112,
			"type":"VEC2"
		},
		{
			"bufferView":54,
			"componentType":5123,
			"count":192,
			"type":"SCALAR"
		},
		{
			"bufferView":55,
			"componentType":5126,
			"count":80,
			"max":[
				0.6000000238418579,
				0.4000000059604645,
				0.6000000238418579
			],
			"min":[
				-0.6000000238418579,
				0,
				-0.6000000238418579
			],
			"type":"VEC3"
		},
		{
			"bufferView":56,
			"componentType":5126,
			"count":80,
			"type":"VEC3"
		},
		{
			"bufferView":57,
			"componentType":5126,
			"count":80,
			"type":"VEC2"
		}
	],
	"bufferViews":[
		{
			"buffer":0,
			"byteLength":192,
			"byteOffset":0,
			"target":34962
		},
		{
			"buffer":0,
			"byteLength":192,
			"byteOffset":192,
			"target":34962
		},
		{
			"buffer":0,
			"byteLength":128,
			"byteOffset":384,
			"target":34962
		},
		{
			"buffer":0,
			"byteLength":72,
			"byteOffset":512,
			"target":34963
		},
		{
			"buffer":0,
			"byteLength":216,
			"byteOffset":584,
			"target":34962
		},
		{
			"buffer":0,
			"byteLength":216,
			"byteOffset":800,
			"target":34962
		},
		{
			"buffer":0,
			"byteLength":144,
			"byteOffset":1016,
			"target":34962
		},
		{
			"buffer":0,
			"byteLength":96,
			"byteOffset":1160,
			"target":34963
		},
		{
			"buffer":0,
			"byteLength":192,
			"byteOffset":1256,
			"target":34962
		},
		{
			"buffer":0,
			"byteLength":192,
			"byteOffset":1448,
			"target":34962
		},
		{
			"buffer":0,
			"byteLength":128,
			"byteOffset":1640,
			"target":34962
		},
		{
			"buffer":0,
			"byteLength":216,
			"byteOffset":1768,
			"target":34962
		},
		{
			"buffer":0,
			"byteLength":216,
			"byteOffset":1984,
			"target":34962
		},
		{
			"buffer":0,
			"byteLength":144,
			"byteOffset":2200,
			"target":34962
		},
		{
			"buffer":0,
			"byteLength":192,
			"byteOffset":2344,
			"target":34962
		},
		{
			"buffer":0,
			"byteLength":192,
			"byteOffset":2536,
			"target":34962
		},
		{
			"buffer":0,
			"byteLength":128,
			"byteOffset":2728,
			"target":34962
		},
		{
			"buffer":0,
			"byteLength":216,
			"byteOffset":2856,
			"target":34962
		},
		{
			"buffer":0,
			"byteLength":216,
			"byteOffset":3072,
			"target":34962
		},
		{
			"buffer":0,
			"byteLength":144,
			"byteOffset":3288,
			"target":34962
		},
		{
			"buffer":0,
			"byteLength":336,
			"byteOffset":3432,
			"target":34962
		},
		{
			"buffer":0,
			"byteLength":336,
			"byteOffset":3768,
			"target":34962
		},
		{
			"buffer":0,
			"byteLength":224,
			"byteOffset":4104,
			"target":34962
		},
		{
			"buffer":0,
			"byteLength":84,
			"byteOffset":4328,
			"target":34963
		},
		{
			"buffer":0,
			"byteLength":744,
			"byteOffset":4412,
			"target":34962
		},
		{
			"buffer":0,
			"byteLength":744,
			"byteOffset":5156,
			"target":34962
		},
		{
			"buffer":0,
			"byteLength":496,
			"byteOffset":5900,
			"target":34962
		},
		{
			"buffer":0,
			"byteLength":252,
			"byteOffset":6396,
			"target":34963
		},
		{
			"buffer":0,
			"byteLength":336,
			"byteOffset":6648,
			"target":34962
		},
		{
			"buffer":0,
			"byteLength":336,
			"byteOffset":6984,
			"target":34962
		},
		{
			"buffer":0,
			"byteLength":224,
			"byteOffset":7320,
			"target":34962
		},
		{
			"buffer":0,
			"byteLength":744,
			"byteOffset":7544,
			"target":34962
		},
		{
			"buffer":0,
			"byteLength":744,
			"byteOffset":8288,
			"target":34962
		},
		{
			"buffer":0,
			"byteLength":496,
			"byteOffset":9032,
			"target":34962
		},
		{
			"buffer":0,
			"byteLength":960,
			"byteOffset":9528,
			"target":34962
		},
		{
			"buffer":0,
			"byteLength":960,
			"byteOffset":10488,
			"target":34962
		},
		{
			"buffer":0,
			"byteLength":640,
			"byteOffset":11448,
			"target":34962
		},
		{
			"buffer":0,
			"byteLength":264,
			"byteOffset":12088,
			"target":34963
		},
		{
			"buffer":0,
			"byteLength":336,
			"byteOffset":12352,
			"target":34962
		},
		{
			"buffer":0,
			"byteLength":336,
			"byteOffset":12688,
			"target":34962
		},
		{
			"buffer":0,
			"byteLength":224,
			"byteOffset":13024,
			"target":34962
		},
		{
			"buffer":0,
			"byteLength":744,
			"byteOffset":13248,
			"target":34962
		},
		{
			"buffer":0,
			"byteLength":744,
			"byteOffset":13992,
			"target":34962
		},
		{
			"buffer":0,
			"byteLength":496,
			"byteOffset":14736,
			"target":34962
		},
		{
			"buffer":0,
			"byteLength":960,
			"byteOffset":15232,
			"target":34962
		},
		{
			"buffer":0,
			"byteLength":960,
			"byteOffset":16192,
			"target":34962
		},
		{
			"buffer":0,
			"byteLength":640,
			"byteOffset":17152,
			"target":34962
		},
		{
			"buffer":0,
			"byteLength":2736,
			"byteOffset":17792,
			"target":34962
		},
		{
			"buffer":0,
			"byteLength":2736,
			"byteOffset":20528,
			"target":34962
		},
		{
			"buffer":0,
			"byteLength":1824,
			"byteOffset":23264,
			"target":34962
		},
		{
			"buffer":0,
			"byteLength":864,
			"byteOffset":25088,
			"target":34963
		},
		{
			"buffer":0,
			"byteLength":1344,
			"byteOffset":25952,
			"target":34962
		},
		{
			"buffer":0,
			"byteLength":1344,
			"byteOffset":27296,
			"target":34962
		},
		{
			"buffer":0,
			"byteLength":896,
			"byteOffset":28640,
			"target":34962
		},
		{
			"buffer":0,
			"byteLength":384,
			"byteOffset":29536,
			"target":34963
		},
		{
			"buffer":0,
			"byteLength":960,
			"byteOffset":29920,
			"target":34962
		},
		{
			"buffer":0,
			"byteLength":960,
			"byteOffset":30880,
			"target":34962
		},
		{
			"buffer":0,
			"byteLength":640,
			"byteOffset":31840,
			"target":34962
		}
	],
	"samplers":[
		{
			"magFilter":9729,
			"minFilter":9987
		}
	],
	"buffers":[
		{
			"byteLength":32480,
			"uri":"medieval.bin"
		}
	]
}
