{
	"asset":{
		"generator":"Khronos glTF Blender I/O v5.1.19",
		"version":"2.0"
	},
	"scene":0,
	"scenes":[
		{
			"name":"Scene",
			"nodes":[
				0,
				1,
				2,
				3,
				4,
				5,
				6,
				7,
				8,
				9,
				10,
				11,
				12,
				13,
				14,
				15,
				16,
				17,
				18,
				19,
				20,
				21,
				22,
				23,
				24,
				25,
				26,
				27,
				28,
				29,
				30,
				31,
				32,
				33,
				34,
				35,
				36,
				37,
				38,
				39,
				40,
				41,
				42,
				43,
				44,
				45,
				46,
				47,
				48,
				49,
				50,
				51,
				52,
				53,
				54,
				55,
				56,
				57,
				58,
				59,
				60,
				61,
				62,
				63,
				64,
				65,
				66,
				67,
				68
			]
		}
	],
	"nodes":[
		{
			"mesh":0,
			"name":"Grid"
		},
		{
			"mesh":1,
			"name":"Cube",
			"scale":[
				3.8809893131256104,
				14.6439208984375,
				3.8809893131256104
			],
			"translation":[
				4,
				7,
				-8
			]
		},
		{
			"mesh":2,
			"name":"Cube.001",
			"scale":[
				3.8809893131256104,
				8.969708442687988,
				3.8809893131256104
			],
			"translation":[
				34,
				7,
				-19
			]
		},
		{
			"mesh":3,
			"name":"Cube.002",
			"scale":[
				3.8809893131256104,
				7.821408271789551,
				3.8809893131256104
			],
			"translation":[
				24,
				5,
				41
			]
		},
		{
			"mesh":4,
			"name":"Cube.003",
			"scale":[
				6.014102458953857,
				6.212800025939941,
				6.014102458953857
			],
			"translation":[
				36,
				5,
				6
			]
		},
		{
			"mesh":5,
			"name":"Cube.004",
			"scale":[
				6.014102458953857,
				6.212800025939941,
				6.014102458953857
			],
			"translation":[
				3,
				5,
				17
			]
		},
		{
			"mesh":6,
			"name":"Tree",
			"scale":[
				0.602475643157959,
				2.3967695236206055,
				0.602475643157959
			],
			"translation":[
				-26,
				5,
				-16
			]
		},
		{
			"mesh":7,
			"name":"Tree.001",
			"scale":[
				0.602475643157959,
				2.3967695236206055,
				0.602475643157959
			],
			"translation":[
				-18,
				4,
				-24
			]
		},
		{
			"mesh":8,
			"name":"Tree.002",
			"scale":[
				0.602475643157959,
				2.3967695236206055,
				0.602475643157959
			],
			"translation":[
				-36,
				9,
				-19
			]
		},
		{
			"mesh":9,
			"name":"Tree.003",
			"scale":[
				0.602475643157959,
				2.3967695236206055,
				0.602475643157959
			],
			"translation":[
				-14,
				9,
				-40
			]
		},
		{
			"mesh":10,
			"name":"Tree.004",
			"scale":[
				0.602475643157959,
				2.3967695236206055,
				0.602475643157959
			],
			"translation":[
				-23,
				5,
				-39
			]
		},
		{
			"mesh":11,
			"name":"Tree.005",
			"scale":[
				0.602475643157959,
				2.3967695236206055,
				0.602475643157959
			],
			"translation":[
				-30,
				7,
				-29
			]
		},
		{
			"mesh":12,
			"name":"Tree.006",
			"scale":[
				0.602475643157959,
				2.3967695236206055,
				0.602475643157959
			],
			"translation":[
				-41,
				7,
				-5
			]
		},
		{
			"mesh":13,
			"name":"Icosphere",
			"rotation":[
				0.29211723804473877,
				-0.05746673792600632,
				0.255600243806839,
				0.919800877571106
			],
			"translation":[
				-25,
				5,
				18
			]
		},
		{
			"mesh":14,
			"name":"Icosphere.001",
			"rotation":[
				0.29211723804473877,
				-0.05746673792600632,
				0.255600243806839,
				0.919800877571106
			],
			"translation":[
				-26,
				4,
				17
			]
		},
		{
			"mesh":15,
			"name":"Icosphere.002",
			"rotation":[
				0.29211723804473877,
				-0.05746673792600632,
				0.255600243806839,
				0.919800877571106
			],
			"translation":[
				-26,
				4,
				19
			]
		},
		{
			"mesh":16,
			"name":"Icosphere.003",
			"rotation":[
				0.29211723804473877,
				-0.05746673792600632,
				0.255600243806839,
				0.919800877571106
			],
			"translation":[
				-24,
				4,
				19
			]
		},
		{
			"mesh":17,
			"name":"Icosphere.004",
			"rotation":[
				0.29211723804473877,
				-0.05746673792600632,
				0.255600243806839,
				0.919800877571106
			],
			"translation":[
				-26,
				4,
				20
			]
		},
		{
			"mesh":18,
			"name":"Icosphere.005",
			"rotation":[
				0.29211723804473877,
				-0.05746673792600632,
				0.255600243806839,
				0.919800877571106
			],
			"translation":[
				-21,
				4,
				40
			]
		},
		{
			"mesh":19,
			"name":"Icosphere.006",
			"rotation":[
				0.29211723804473877,
				-0.05746673792600632,
				0.255600243806839,
				0.919800877571106
			],
			"translation":[
				-22,
				3,
				39
			]
		},
		{
			"mesh":20,
			"name":"Icosphere.007",
			"rotation":[
				0.29211723804473877,
				-0.05746673792600632,
				0.255600243806839,
				0.919800877571106
			],
			"translation":[
				-20,
				3,
				41
			]
		},
		{
			"mesh":21,
			"name":"Icosphere.008",
			"rotation":[
				0.29211723804473877,
				-0.05746673792600632,
				0.255600243806839,
				0.919800877571106
			],
			"translation":[
				-22,
				3,
				42
			]
		},
		{
			"mesh":22,
			"name":"Icosphere.009",
			"rotation":[
				0.29211723804473877,
				-0.05746673792600632,
				0.255600243806839,
				0.919800877571106
			],
			"translation":[
				-21,
				4,
				24
			]
		},
		{
			"mesh":23,
			"name":"Icosphere.010",
			"rotation":[
				0.29211723804473877,
				-0.05746673792600632,
				0.255600243806839,
				0.919800877571106
			],
			"translation":[
				-22,
				3,
				23
			]
		},
		{
			"mesh":24,
			"name":"Icosphere.011",
			"rotation":[
				0.29211723804473877,
				-0.05746673792600632,
				0.255600243806839,
				0.919800877571106
			],
			"translation":[
				-20,
				3,
				25
			]
		},
		{
			"mesh":25,
			"name":"Icosphere.012",
			"rotation":[
				0.29211723804473877,
				-0.05746673792600632,
				0.255600243806839,
				0.919800877571106
			],
			"translation":[
				-22,
				3,
				27
			]
		},
		{
			"mesh":26,
			"name":"Cube.005",
			"rotation":[
				-0.050261471420526505,
				0,
				0,
				0.9987361431121826
			],
			"scale":[
				0.8999999761581421,
				0.699999988079071,
				1.9999998807907104
			],
			"translation":[
				26,
				1,
				-11
			]
		},
		{
			"mesh":27,
			"name":"Cube.006",
			"rotation":[
				0,
				-0.04611876606941223,
				0,
				0.9989359974861145
			],
			"scale":[
				0.8999999761581421,
				0.699999988079071,
				2
			],
			"translation":[
				26,
				1,
				4
			]
		},
		{
			"mesh":28,
			"name":"Cube.008",
			"rotation":[
				0,
				-0.03770460933446884,
				0,
				0.9992890357971191
			],
			"scale":[
				0.8999999761581421,
				0.699999988079071,
				2
			],
			"translation":[
				13,
				1,
				26
			]
		},
		{
			"mesh":29,
			"name":"Cube.009",
			"rotation":[
				0,
				-0.137086883187294,
				0,
				0.9905590415000916
			],
			"scale":[
				0.8999999761581421,
				0.699999988079071,
				2
			],
			"translation":[
				-11,
				1,
				-3
			]
		},
		{
			"mesh":30,
			"name":"Cube.010",
			"scale":[
				2.1929919719696045,
				2.1929919719696045,
				9.39298152923584
			],
			"translation":[
				4,
				7,
				3
			]
		},
		{
			"mesh":31,
			"name":"Cube.011",
			"scale":[
				6.6643147468566895,
				0.5005602836608887,
				4.4750776290893555
			],
			"translation":[
				36,
				0,
				14
			]
		},
		{
			"mesh":32,
			"name":"Icosphere.013",
			"rotation":[
				0,
				-0.28179341554641724,
				0,
				0.9594751000404358
			],
			"scale":[
				1.2869638204574585,
				1.2869638204574585,
				1.2869638204574585
			],
			"translation":[
				11.697732925415039,
				-8.32629108428955,
				-39.04458999633789
			]
		},
		{
			"mesh":33,
			"name":"Icosphere.014",
			"rotation":[
				0,
				-0.906825602054596,
				0,
				0.42150604724884033
			],
			"scale":[
				1.2869638204574585,
				1.2869638204574585,
				1.2869638204574585
			],
			"translation":[
				9.230514526367188,
				-6.326291084289551,
				-39.76531982421875
			]
		},
		{
			"mesh":34,
			"name":"Icosphere.015",
			"rotation":[
				0,
				-0.9801335334777832,
				0,
				0.19833867251873016
			],
			"scale":[
				1.2869638204574585,
				1.2869638204574585,
				1.2869638204574585
			],
			"translation":[
				5.955100059509277,
				-7.602051258087158,
				-39.072235107421875
			]
		},
		{
			"mesh":35,
			"name":"Icosphere.016",
			"rotation":[
				0,
				0.9963043332099915,
				0,
				0.08589429408311844
			],
			"scale":[
				1.2869638204574585,
				1.2869638204574585,
				1.2869638204574585
			],
			"translation":[
				12.076337814331055,
				-1.5551249980926514,
				-38.837074279785156
			]
		},
		{
			"mesh":36,
			"name":"Icosphere.017",
			"rotation":[
				0,
				-0.9703353643417358,
				0,
				0.24176286160945892
			],
			"scale":[
				1.2869638204574585,
				1.2869638204574585,
				1.2869638204574585
			],
			"translation":[
				10.642642974853516,
				-3.045315742492676,
				-41.59235382080078
			]
		},
		{
			"mesh":37,
			"name":"Icosphere.018",
			"scale":[
				1.2869638204574585,
				1.2869638204574585,
				1.2869638204574585
			],
			"translation":[
				21.975194931030273,
				-8.32629108428955,
				-39.34403991699219
			]
		},
		{
			"mesh":38,
			"name":"Icosphere.019",
			"rotation":[
				0,
				-0.7512990236282349,
				0,
				0.6599620580673218
			],
			"scale":[
				1.2869638204574585,
				1.2869638204574585,
				1.2869638204574585
			],
			"translation":[
				19.510074615478516,
				-5.202787399291992,
				-38.61616516113281
			]
		},
		{
			"mesh":39,
			"name":"Icosphere.020",
			"rotation":[
				0,
				0.9963043332099915,
				0,
				0.08589429408311844
			],
			"scale":[
				1.2869638204574585,
				1.2869638204574585,
				1.2869638204574585
			],
			"translation":[
				12.689437866210938,
				-4.478547096252441,
				-38.08395767211914
			]
		},
		{
			"mesh":40,
			"name":"Icosphere.021",
			"rotation":[
				0,
				-0.9801335334777832,
				0,
				0.19833867251873016
			],
			"scale":[
				1.2869638204574585,
				1.2869638204574585,
				1.2869638204574585
			],
			"translation":[
				22.405885696411133,
				-4.678628921508789,
				-39.374210357666016
			]
		},
		{
			"mesh":41,
			"name":"Icosphere.022",
			"rotation":[
				0,
				-0.8628854155540466,
				0,
				0.5053995847702026
			],
			"scale":[
				1.2869638204574585,
				1.2869638204574585,
				1.2869638204574585
			],
			"translation":[
				19.709970474243164,
				-3.045315742492676,
				-40.91664505004883
			]
		},
		{
			"mesh":42,
			"name":"Icosphere.023",
			"scale":[
				1.2869638204574585,
				1.2869638204574585,
				1.2869638204574585
			],
			"translation":[
				30.911746978759766,
				-8.32629108428955,
				-39.34403991699219
			]
		},
		{
			"mesh":43,
			"name":"Icosphere.024",
			"rotation":[
				0,
				-0.7512990236282349,
				0,
				0.6599620580673218
			],
			"scale":[
				1.2869638204574585,
				1.2869638204574585,
				1.2869638204574585
			],
			"translation":[
				28.44662857055664,
				-8.32629108428955,
				-38.61616516113281
			]
		},
		{
			"mesh":44,
			"name":"Icosphere.025",
			"rotation":[
				0,
				-0.9801335334777832,
				0,
				0.19833867251873016
			],
			"scale":[
				1.2869638204574585,
				1.2869638204574585,
				1.2869638204574585
			],
			"translation":[
				23.578533172607422,
				-7.602051258087158,
				-39.072235107421875
			]
		},
		{
			"mesh":45,
			"name":"Icosphere.026",
			"rotation":[
				0,
				-0.9801335334777832,
				0,
				0.19833867251873016
			],
			"scale":[
				1.2869638204574585,
				1.2869638204574585,
				1.2869638204574585
			],
			"translation":[
				31.342437744140625,
				-4.678628921508789,
				-39.374210357666016
			]
		},
		{
			"mesh":46,
			"name":"Icosphere.027",
			"rotation":[
				0,
				-0.8628854155540466,
				0,
				0.5053995847702026
			],
			"scale":[
				1.2869638204574585,
				1.2869638204574585,
				1.2869638204574585
			],
			"translation":[
				28.646522521972656,
				-3.045315742492676,
				-40.91664505004883
			]
		},
		{
			"mesh":47,
			"name":"Icosphere.028",
			"scale":[
				1.2869638204574585,
				1.2869638204574585,
				1.2869638204574585
			],
			"translation":[
				42.09912109375,
				-8.32629108428955,
				-39.34403991699219
			]
		},
		{
			"mesh":48,
			"name":"Icosphere.029",
			"rotation":[
				0,
				-0.7512990236282349,
				0,
				0.6599620580673218
			],
			"scale":[
				1.2869638204574585,
				1.2869638204574585,
				1.2869638204574585
			],
			"translation":[
				39.634002685546875,
				-8.32629108428955,
				-38.61616516113281
			]
		},
		{
			"mesh":49,
			"name":"Icosphere.030",
			"rotation":[
				0,
				-0.9801335334777832,
				0,
				0.19833867251873016
			],
			"scale":[
				1.2869638204574585,
				1.2869638204574585,
				1.2869638204574585
			],
			"translation":[
				34.765907287597656,
				-7.602051258087158,
				-39.072235107421875
			]
		},
		{
			"mesh":50,
			"name":"Icosphere.031",
			"rotation":[
				0,
				-0.9801335334777832,
				0,
				0.19833867251873016
			],
			"scale":[
				1.2869638204574585,
				1.2869638204574585,
				1.2869638204574585
			],
			"translation":[
				42.52981185913086,
				-4.678628921508789,
				-39.374210357666016
			]
		},
		{
			"mesh":51,
			"name":"Icosphere.032",
			"rotation":[
				0,
				-0.8628854155540466,
				0,
				0.5053995847702026
			],
			"scale":[
				1.2869638204574585,
				1.2869638204574585,
				1.2869638204574585
			],
			"translation":[
				39.83389663696289,
				-3.045315742492676,
				-40.91664505004883
			]
		},
		{
			"mesh":52,
			"name":"Icosphere.033",
			"rotation":[
				0,
				-0.14236247539520264,
				0,
				0.9898145794868469
			],
			"scale":[
				1.2869638204574585,
				1.2869638204574585,
				1.2869638204574585
			],
			"translation":[
				51.630035400390625,
				-5.549655914306641,
				-36.1295166015625
			]
		},
		{
			"mesh":53,
			"name":"Icosphere.034",
			"rotation":[
				0,
				-0.8376004695892334,
				0,
				0.5462833642959595
			],
			"scale":[
				1.2869638204574585,
				1.2869638204574585,
				1.2869638204574585
			],
			"translation":[
				49.0597038269043,
				-5.549655914306641,
				-36.125877380371094
			]
		},
		{
			"mesh":54,
			"name":"Icosphere.035",
			"rotation":[
				0,
				-0.998386561870575,
				0,
				0.056784309446811676
			],
			"scale":[
				1.2869638204574585,
				1.2869638204574585,
				1.2869638204574585
			],
			"translation":[
				44.5174674987793,
				-4.82541561126709,
				-37.93540954589844
			]
		},
		{
			"mesh":55,
			"name":"Icosphere.036",
			"rotation":[
				0,
				-0.998386561870575,
				0,
				0.056784309446811676
			],
			"scale":[
				1.2869638204574585,
				1.2869638204574585,
				1.2869638204574585
			],
			"translation":[
				52.05177307128906,
				-1.9019935131072998,
				-36.037086486816406
			]
		},
		{
			"mesh":56,
			"name":"Icosphere.037",
			"rotation":[
				0,
				-0.9260465502738953,
				0,
				0.3774093687534332
			],
			"scale":[
				1.2869638204574585,
				1.2869638204574585,
				1.2869638204574585
			],
			"translation":[
				49.89982986450195,
				-0.2686803340911865,
				-38.27677536010742
			]
		},
		{
			"mesh":57,
			"name":"Icosphere.038",
			"rotation":[
				0,
				-0.7325275540351868,
				0,
				0.6807373762130737
			],
			"scale":[
				1.2869638204574585,
				1.2869638204574585,
				1.2869638204574585
			],
			"translation":[
				2.4028162956237793,
				-3.285369873046875,
				-50.31598663330078
			]
		},
		{
			"mesh":58,
			"name":"Icosphere.039",
			"rotation":[
				0,
				0.9948777556419373,
				0,
				0.10108645260334015
			],
			"scale":[
				1.2869638204574585,
				1.2869638204574585,
				1.2869638204574585
			],
			"translation":[
				1.8573236465454102,
				-3.285369873046875,
				-52.8277702331543
			]
		},
		{
			"mesh":59,
			"name":"Icosphere.040",
			"rotation":[
				0,
				0.9438493251800537,
				0,
				0.3303762972354889
			],
			"scale":[
				1.2869638204574585,
				1.2869638204574585,
				1.2869638204574585
			],
			"translation":[
				-0.3163139820098877,
				-2.5611300468444824,
				-55.374141693115234
			]
		},
		{
			"mesh":60,
			"name":"Icosphere.041",
			"rotation":[
				0,
				0.8125019669532776,
				0,
				0.582958459854126
			],
			"scale":[
				1.2869638204574585,
				1.2869638204574585,
				1.2869638204574585
			],
			"translation":[
				2.4013824462890625,
				0.3622922897338867,
				-49.88424301147461
			]
		},
		{
			"mesh":61,
			"name":"Icosphere.042",
			"rotation":[
				0,
				0.957617461681366,
				0,
				0.28804314136505127
			],
			"scale":[
				1.2869638204574585,
				1.2869638204574585,
				1.2869638204574585
			],
			"translation":[
				4.137000560760498,
				1.99560546875,
				-52.46002960205078
			]
		},
		{
			"mesh":62,
			"name":"Icosphere.043",
			"rotation":[
				0,
				-0.9830458164215088,
				0,
				0.18336015939712524
			],
			"scale":[
				1.2869638204574585,
				1.2869638204574585,
				1.2869638204574585
			],
			"translation":[
				5.758616924285889,
				-3.285369873046875,
				-43.248111724853516
			]
		},
		{
			"mesh":63,
			"name":"Icosphere.044",
			"rotation":[
				0,
				0.8125019669532776,
				0,
				0.582958459854126
			],
			"scale":[
				1.2869638204574585,
				1.2869638204574585,
				1.2869638204574585
			],
			"translation":[
				2.032658576965332,
				-2.5611300468444824,
				-48.985843658447266
			]
		},
		{
			"mesh":64,
			"name":"Cube.012",
			"translation":[
				39,
				1,
				-19
			]
		},
		{
			"mesh":65,
			"name":"Cube.013",
			"translation":[
				-32,
				5,
				12
			]
		},
		{
			"mesh":66,
			"name":"Cube.014",
			"translation":[
				-1,
				1,
				24
			]
		},
		{
			"mesh":67,
			"name":"Cube.015",
			"translation":[
				19,
				-1,
				39
			]
		},
		{
			"mesh":68,
			"name":"Cube.016",
			"rotation":[
				0,
				0.7571362257003784,
				0,
				0.6532571911811829
			],
			"scale":[
				0.8999999761581421,
				0.699999988079071,
				2
			],
			"translation":[
				6,
				1,
				7
			]
		}
	],
	"meshes":[
		{
			"name":"Grid",
			"primitives":[
				{
					"attributes":{
						"POSITION":0,
						"NORMAL":1,
						"TEXCOORD_0":2
					},
					"indices":3
				}
			]
		},
		{
			"name":"Cube.011",
			"primitives":[
				{
					"attributes":{
						"POSITION":4,
						"NORMAL":5,
						"TEXCOORD_0":6
					},
					"indices":7
				}
			]
		},
		{
			"name":"Cube.012",
			"primitives":[
				{
					"attributes":{
						"POSITION":8,
						"NORMAL":9,
						"TEXCOORD_0":10
					},
					"indices":7
				}
			]
		},
		{
			"name":"Cube.013",
			"primitives":[
				{
					"attributes":{
						"POSITION":11,
						"NORMAL":12,
						"TEXCOORD_0":13
					},
					"indices":7
				}
			]
		},
		{
			"name":"Cube.014",
			"primitives":[
				{
					"attributes":{
						"POSITION":14,
						"NORMAL":15,
						"TEXCOORD_0":16
					},
					"indices":7
				}
			]
		},
		{
			"name":"Cube.015",
			"primitives":[
				{
					"attributes":{
						"POSITION":17,
						"NORMAL":18,
						"TEXCOORD_0":19
					},
					"indices":7
				}
			]
		},
		{
			"name":"Cylinder",
			"primitives":[
				{
					"attributes":{
						"POSITION":20,
						"NORMAL":21,
						"TEXCOORD_0":22
					},
					"indices":23
				}
			]
		},
		{
			"name":"Cylinder.001",
			"primitives":[
				{
					"attributes":{
						"POSITION":24,
						"NORMAL":25,
						"TEXCOORD_0":26
					},
					"indices":23
				}
			]
		},
		{
			"name":"Cylinder.002",
			"primitives":[
				{
					"attributes":{
						"POSITION":27,
						"NORMAL":28,
						"TEXCOORD_0":29
					},
					"indices":23
				}
			]
		},
		{
			"name":"Cylinder.003",
			"primitives":[
				{
					"attributes":{
						"POSITION":30,
						"NORMAL":31,
						"TEXCOORD_0":32
					},
					"indices":23
				}
			]
		},
		{
			"name":"Cylinder.004",
			"primitives":[
				{
					"attributes":{
						"POSITION":33,
						"NORMAL":34,
						"TEXCOORD_0":35
					},
					"indices":23
				}
			]
		},
		{
			"name":"Cylinder.005",
			"primitives":[
				{
					"attributes":{
						"POSITION":36,
						"NORMAL":37,
						"TEXCOORD_0":38
					},
					"indices":23
				}
			]
		},
		{
			"name":"Cylinder.006",
			"primitives":[
				{
					"attributes":{
						"POSITION":39,
						"NORMAL":40,
						"TEXCOORD_0":41
					},
					"indices":23
				}
			]
		},
		{
			"name":"Icosphere.001",
			"primitives":[
				{
					"attributes":{
						"POSITION":42,
						"NORMAL":43,
						"TEXCOORD_0":44
					},
					"indices":45
				}
			]
		},
		{
			"name":"Icosphere.002",
			"primitives":[
				{
					"attributes":{
						"POSITION":46,
						"NORMAL":47,
						"TEXCOORD_0":48
					},
					"indices":45
				}
			]
		},
		{
			"name":"Icosphere.003",
			"primitives":[
				{
					"attributes":{
						"POSITION":49,
						"NORMAL":50,
						"TEXCOORD_0":51
					},
					"indices":45
				}
			]
		},
		{
			"name":"Icosphere.004",
			"primitives":[
				{
					"attributes":{
						"POSITION":52,
						"NORMAL":53,
						"TEXCOORD_0":54
					},
					"indices":45
				}
			]
		},
		{
			"name":"Icosphere.005",
			"primitives":[
				{
					"attributes":{
						"POSITION":55,
						"NORMAL":56,
						"TEXCOORD_0":57
					},
					"indices":45
				}
			]
		},
		{
			"name":"Icosphere.006",
			"primitives":[
				{
					"attributes":{
						"POSITION":58,
						"NORMAL":59,
						"TEXCOORD_0":60
					},
					"indices":45
				}
			]
		},
		{
			"name":"Icosphere.007",
			"primitives":[
				{
					"attributes":{
						"POSITION":61,
						"NORMAL":62,
						"TEXCOORD_0":63
					},
					"indices":45
				}
			]
		},
		{
			"name":"Icosphere.008",
			"primitives":[
				{
					"attributes":{
						"POSITION":64,
						"NORMAL":65,
						"TEXCOORD_0":66
					},
					"indices":45
				}
			]
		},
		{
			"name":"Icosphere.009",
			"primitives":[
				{
					"attributes":{
						"POSITION":67,
						"NORMAL":68,
						"TEXCOORD_0":69
					},
					"indices":45
				}
			]
		},
		{
			"name":"Icosphere.010",
			"primitives":[
				{
					"attributes":{
						"POSITION":70,
						"NORMAL":71,
						"TEXCOORD_0":72
					},
					"indices":45
				}
			]
		},
		{
			"name":"Icosphere.011",
			"primitives":[
				{
					"attributes":{
						"POSITION":73,
						"NORMAL":74,
						"TEXCOORD_0":75
					},
					"indices":45
				}
			]
		},
		{
			"name":"Icosphere.012",
			"primitives":[
				{
					"attributes":{
						"POSITION":76,
						"NORMAL":77,
						"TEXCOORD_0":78
					},
					"indices":45
				}
			]
		},
		{
			"name":"Icosphere.013",
			"primitives":[
				{
					"attributes":{
						"POSITION":79,
						"NORMAL":80,
						"TEXCOORD_0":81
					},
					"indices":45
				}
			]
		},
		{
			"name":"Cube.017",
			"primitives":[
				{
					"attributes":{
						"POSITION":82,
						"NORMAL":83,
						"TEXCOORD_0":84
					},
					"indices":7
				}
			]
		},
		{
			"name":"Cube.019",
			"primitives":[
				{
					"attributes":{
						"POSITION":85,
						"NORMAL":86,
						"TEXCOORD_0":87
					},
					"indices":7
				}
			]
		},
		{
			"name":"Cube.021",
			"primitives":[
				{
					"attributes":{
						"POSITION":88,
						"NORMAL":89,
						"TEXCOORD_0":90
					},
					"indices":7
				}
			]
		},
		{
			"name":"Cube.022",
			"primitives":[
				{
					"attributes":{
						"POSITION":91,
						"NORMAL":92,
						"TEXCOORD_0":93
					},
					"indices":7
				}
			]
		},
		{
			"name":"Cube.023",
			"primitives":[
				{
					"attributes":{
						"POSITION":94,
						"NORMAL":95,
						"TEXCOORD_0":96
					},
					"indices":7
				}
			]
		},
		{
			"name":"Cube.024",
			"primitives":[
				{
					"attributes":{
						"POSITION":97,
						"NORMAL":98,
						"TEXCOORD_0":99
					},
					"indices":100
				}
			]
		},
		{
			"name":"Icosphere.015",
			"primitives":[
				{
					"attributes":{
						"POSITION":101,
						"NORMAL":102,
						"TEXCOORD_0":103
					},
					"indices":104
				}
			]
		},
		{
			"name":"Icosphere.016",
			"primitives":[
				{
					"attributes":{
						"POSITION":105,
						"NORMAL":106,
						"TEXCOORD_0":107
					},
					"indices":104
				}
			]
		},
		{
			"name":"Icosphere.017",
			"primitives":[
				{
					"attributes":{
						"POSITION":108,
						"NORMAL":109,
						"TEXCOORD_0":110
					},
					"indices":104
				}
			]
		},
		{
			"name":"Icosphere.018",
			"primitives":[
				{
					"attributes":{
						"POSITION":111,
						"NORMAL":112,
						"TEXCOORD_0":113
					},
					"indices":104
				}
			]
		},
		{
			"name":"Icosphere.019",
			"primitives":[
				{
					"attributes":{
						"POSITION":114,
						"NORMAL":115,
						"TEXCOORD_0":116
					},
					"indices":104
				}
			]
		},
		{
			"name":"Icosphere.020",
			"primitives":[
				{
					"attributes":{
						"POSITION":117,
						"NORMAL":118,
						"TEXCOORD_0":119
					},
					"indices":104
				}
			]
		},
		{
			"name":"Icosphere.021",
			"primitives":[
				{
					"attributes":{
						"POSITION":120,
						"NORMAL":121,
						"TEXCOORD_0":122
					},
					"indices":104
				}
			]
		},
		{
			"name":"Icosphere.022",
			"primitives":[
				{
					"attributes":{
						"POSITION":123,
						"NORMAL":124,
						"TEXCOORD_0":125
					},
					"indices":104
				}
			]
		},
		{
			"name":"Icosphere.023",
			"primitives":[
				{
					"attributes":{
						"POSITION":126,
						"NORMAL":127,
						"TEXCOORD_0":128
					},
					"indices":104
				}
			]
		},
		{
			"name":"Icosphere.024",
			"primitives":[
				{
					"attributes":{
						"POSITION":129,
						"NORMAL":130,
						"TEXCOORD_0":131
					},
					"indices":104
				}
			]
		},
		{
			"name":"Icosphere.025",
			"primitives":[
				{
					"attributes":{
						"POSITION":132,
						"NORMAL":133,
						"TEXCOORD_0":134
					},
					"indices":104
				}
			]
		},
		{
			"name":"Icosphere.026",
			"primitives":[
				{
					"attributes":{
						"POSITION":135,
						"NORMAL":136,
						"TEXCOORD_0":137
					},
					"indices":104
				}
			]
		},
		{
			"name":"Icosphere.027",
			"primitives":[
				{
					"attributes":{
						"POSITION":138,
						"NORMAL":139,
						"TEXCOORD_0":140
					},
					"indices":104
				}
			]
		},
		{
			"name":"Icosphere.028",
			"primitives":[
				{
					"attributes":{
						"POSITION":141,
						"NORMAL":142,
						"TEXCOORD_0":143
					},
					"indices":104
				}
			]
		},
		{
			"name":"Icosphere.029",
			"primitives":[
				{
					"attributes":{
						"POSITION":144,
						"NORMAL":145,
						"TEXCOORD_0":146
					},
					"indices":104
				}
			]
		},
		{
			"name":"Icosphere.030",
			"primitives":[
				{
					"attributes":{
						"POSITION":147,
						"NORMAL":148,
						"TEXCOORD_0":149
					},
					"indices":104
				}
			]
		},
		{
			"name":"Icosphere.031",
			"primitives":[
				{
					"attributes":{
						"POSITION":150,
						"NORMAL":151,
						"TEXCOORD_0":152
					},
					"indices":104
				}
			]
		},
		{
			"name":"Icosphere.032",
			"primitives":[
				{
					"attributes":{
						"POSITION":153,
						"NORMAL":154,
						"TEXCOORD_0":155
					},
					"indices":104
				}
			]
		},
		{
			"name":"Icosphere.033",
			"primitives":[
				{
					"attributes":{
						"POSITION":156,
						"NORMAL":157,
						"TEXCOORD_0":158
					},
					"indices":104
				}
			]
		},
		{
			"name":"Icosphere.034",
			"primitives":[
				{
					"attributes":{
						"POSITION":159,
						"NORMAL":160,
						"TEXCOORD_0":161
					},
					"indices":104
				}
			]
		},
		{
			"name":"Icosphere.035",
			"primitives":[
				{
					"attributes":{
						"POSITION":162,
						"NORMAL":163,
						"TEXCOORD_0":164
					},
					"indices":104
				}
			]
		},
		{
			"name":"Icosphere.036",
			"primitives":[
				{
					"attributes":{
						"POSITION":165,
						"NORMAL":166,
						"TEXCOORD_0":167
					},
					"indices":104
				}
			]
		},
		{
			"name":"Icosphere.037",
			"primitives":[
				{
					"attributes":{
						"POSITION":168,
						"NORMAL":169,
						"TEXCOORD_0":170
					},
					"indices":104
				}
			]
		},
		{
			"name":"Icosphere.038",
			"primitives":[
				{
					"attributes":{
						"POSITION":171,
						"NORMAL":172,
						"TEXCOORD_0":173
					},
					"indices":104
				}
			]
		},
		{
			"name":"Icosphere.039",
			"primitives":[
				{
					"attributes":{
						"POSITION":174,
						"NORMAL":175,
						"TEXCOORD_0":176
					},
					"indices":104
				}
			]
		},
		{
			"name":"Icosphere.040",
			"primitives":[
				{
					"attributes":{
						"POSITION":177,
						"NORMAL":178,
						"TEXCOORD_0":179
					},
					"indices":104
				}
			]
		},
		{
			"name":"Icosphere.041",
			"primitives":[
				{
					"attributes":{
						"POSITION":180,
						"NORMAL":181,
						"TEXCOORD_0":182
					},
					"indices":104
				}
			]
		},
		{
			"name":"Icosphere.042",
			"primitives":[
				{
					"attributes":{
						"POSITION":183,
						"NORMAL":184,
						"TEXCOORD_0":185
					},
					"indices":104
				}
			]
		},
		{
			"name":"Icosphere.043",
			"primitives":[
				{
					"attributes":{
						"POSITION":186,
						"NORMAL":187,
						"TEXCOORD_0":188
					},
					"indices":104
				}
			]
		},
		{
			"name":"Icosphere.044",
			"primitives":[
				{
					"attributes":{
						"POSITION":189,
						"NORMAL":190,
						"TEXCOORD_0":191
					},
					"indices":104
				}
			]
		},
		{
			"name":"Icosphere.045",
			"primitives":[
				{
					"attributes":{
						"POSITION":192,
						"NORMAL":193,
						"TEXCOORD_0":194
					},
					"indices":104
				}
			]
		},
		{
			"name":"Icosphere.046",
			"primitives":[
				{
					"attributes":{
						"POSITION":195,
						"NORMAL":196,
						"TEXCOORD_0":197
					},
					"indices":104
				}
			]
		},
		{
			"name":"Cube.025",
			"primitives":[
				{
					"attributes":{
						"POSITION":198,
						"NORMAL":199,
						"TEXCOORD_0":200
					},
					"indices":7
				}
			]
		},
		{
			"name":"Cube.026",
			"primitives":[
				{
					"attributes":{
						"POSITION":201,
						"NORMAL":202,
						"TEXCOORD_0":203
					},
					"indices":7
				}
			]
		},
		{
			"name":"Cube.027",
			"primitives":[
				{
					"attributes":{
						"POSITION":204,
						"NORMAL":205,
						"TEXCOORD_0":206
					},
					"indices":7
				}
			]
		},
		{
			"name":"Cube.028",
			"primitives":[
				{
					"attributes":{
						"POSITION":207,
						"NORMAL":208,
						"TEXCOORD_0":209
					},
					"indices":7
				}
			]
		},
		{
			"name":"Cube.029",
			"primitives":[
				{
					"attributes":{
						"POSITION":210,
						"NORMAL":211,
						"TEXCOORD_0":212
					},
					"indices":7
				}
			]
		}
	],
	"accessors":[
		{
			"bufferView":0,
			"componentType":5126,
			"count":953,
			"max":[
				50,
				8,
				50
			],
			"min":[
				-50,
				-5,
				-50
			],
			"type":"VEC3"
		},
		{
			"bufferView":1,
			"componentType":5126,
			"count":953,
			"type":"VEC3"
		},
		{
			"bufferView":2,
			"componentType":5126,
			"count":953,
			"type":"VEC2"
		},
		{
			"bufferView":3,
			"componentType":5123,
			"count":2400,
			"type":"SCALAR"
		},
		{
			"bufferView":4,
			"componentType":5126,
			"count":24,
			"max":[
				1,
				1,
				1
			],
			"min":[
				-1,
				-1,
				-1
			],
			"type":"VEC3"
		},
		{
			"bufferView":5,
			"componentType":5126,
			"count":24,
			"type":"VEC3"
		},
		{
			"bufferView":6,
			"componentType":5126,
			"count":24,
			"type":"VEC2"
		},
		{
			"bufferView":7,
			"componentType":5123,
			"count":36,
			"type":"SCALAR"
		},
		{
			"bufferView":8,
			"componentType":5126,
			"count":24,
			"max":[
				1,
				1,
				1
			],
			"min":[
				-1,
				-1,
				-1
			],
			"type":"VEC3"
		},
		{
			"bufferView":9,
			"componentType":5126,
			"count":24,
			"type":"VEC3"
		},
		{
			"bufferView":10,
			"componentType":5126,
			"count":24,
			"type":"VEC2"
		},
		{
			"bufferView":11,
			"componentType":5126,
			"count":24,
			"max":[
				1,
				1,
				1
			],
			"min":[
				-1,
				-1,
				-1
			],
			"type":"VEC3"
		},
		{
			"bufferView":12,
			"componentType":5126,
			"count":24,
			"type":"VEC3"
		},
		{
			"bufferView":13,
			"componentType":5126,
			"count":24,
			"type":"VEC2"
		},
		{
			"bufferView":14,
			"componentType":5126,
			"count":24,
			"max":[
				1,
				1,
				1
			],
			"min":[
				-1,
				-1,
				-1
			],
			"type":"VEC3"
		},
		{
			"bufferView":15,
			"componentType":5126,
			"count":24,
			"type":"VEC3"
		},
		{
			"bufferView":16,
			"componentType":5126,
			"count":24,
			"type":"VEC2"
		},
		{
			"bufferView":17,
			"componentType":5126,
			"count":24,
			"max":[
				1,
				1,
				1
			],
			"min":[
				-1,
				-1,
				-1
			],
			"type":"VEC3"
		},
		{
			"bufferView":18,
			"componentType":5126,
			"count":24,
			"type":"VEC3"
		},
		{
			"bufferView":19,
			"componentType":5126,
			"count":24,
			"type":"VEC2"
		},
		{
			"bufferView":20,
			"componentType":5126,
			"count":432,
			"max":[
				5.421489238739014,
				3.519071102142334,
				5.7004828453063965
			],
			"min":[
				-5.421489238739014,
				-1,
				-5.7004828453063965
			],
			"type":"VEC3"
		},
		{
			"bufferView":21,
			"componentType":5126,
			"count":432,
			"type":"VEC3"
		},
		{
			"bufferView":22,
			"componentType":5126,
			"count":432,
			"type":"VEC2"
		},
		{
			"bufferView":23,
			"componentType":5123,
			"count":612,
			"type":"SCALAR"
		},
		{
			"bufferView":24,
			"componentType":5126,
			"count":432,
			"max":[
				5.421489238739014,
				3.519071102142334,
				5.7004828453063965
			],
			"min":[
				-5.421489238739014,
				-1,
				-5.7004828453063965
			],
			"type":"VEC3"
		},
		{
			"bufferView":25,
			"componentType":5126,
			"count":432,
			"type":"VEC3"
		},
		{
			"bufferView":26,
			"componentType":5126,
			"count":432,
			"type":"VEC2"
		},
		{
			"bufferView":27,
			"componentType":5126,
			"count":432,
			"max":[
				6.566460132598877,
				3.821692943572998,
				6.904374599456787
			],
			"min":[
				-6.566460132598877,
				-2.2600417137145996,
				-6.904374599456787
			],
			"type":"VEC3"
		},
		{
			"bufferView":28,
			"componentType":5126,
			"count":432,
			"type":"VEC3"
		},
		{
			"bufferView":29,
			"componentType":5126,
			"count":432,
			"type":"VEC2"
		},
		{
			"bufferView":30,
			"componentType":5126,
			"count":432,
			"max":[
				6.566460132598877,
				3.821692943572998,
				6.904374599456787
			],
			"min":[
				-6.566460132598877,
				-2.2600417137145996,
				-6.904374599456787
			],
			"type":"VEC3"
		},
		{
			"bufferView":31,
			"componentType":5126,
			"count":432,
			"type":"VEC3"
		},
		{
			"bufferView":32,
			"componentType":5126,
			"count":432,
			"type":"VEC2"
		},
		{
			"bufferView":33,
			"componentType":5126,
			"count":432,
			"max":[
				5.421489238739014,
				3.519071102142334,
				5.7004828453063965
			],
			"min":[
				-5.421489238739014,
				-1,
				-5.7004828453063965
			],
			"type":"VEC3"
		},
		{
			"bufferView":34,
			"componentType":5126,
			"count":432,
			"type":"VEC3"
		},
		{
			"bufferView":35,
			"componentType":5126,
			"count":432,
			"type":"VEC2"
		},
		{
			"bufferView":36,
			"componentType":5126,
			"count":432,
			"max":[
				6.566460132598877,
				3.821692943572998,
				6.904374599456787
			],
			"min":[
				-6.566460132598877,
				-2.2600417137145996,
				-6.904374599456787
			],
			"type":"VEC3"
		},
		{
			"bufferView":37,
			"componentType":5126,
			"count":432,
			"type":"VEC3"
		},
		{
			"bufferView":38,
			"componentType":5126,
			"count":432,
			"type":"VEC2"
		},
		{
			"bufferView":39,
			"componentType":5126,
			"count":432,
			"max":[
				5.421489238739014,
				3.519071102142334,
				5.7004828453063965
			],
			"min":[
				-5.421489238739014,
				-1,
				-5.7004828453063965
			],
			"type":"VEC3"
		},
		{
			"bufferView":40,
			"componentType":5126,
			"count":432,
			"type":"VEC3"
		},
		{
			"bufferView":41,
			"componentType":5126,
			"count":432,
			"type":"VEC2"
		},
		{
			"bufferView":42,
			"componentType":5126,
			"count":960,
			"max":[
				0.9510578513145447,
				1,
				2
			],
			"min":[
				-1.9510579109191895,
				-2,
				-0.9999999403953552
			],
			"type":"VEC3"
		},
		{
			"bufferView":43,
			"componentType":5126,
			"count":960,
			"type":"VEC3"
		},
		{
			"bufferView":44,
			"componentType":5126,
			"count":960,
			"type":"VEC2"
		},
		{
			"bufferView":45,
			"componentType":5123,
			"count":960,
			"type":"SCALAR"
		},
		{
			"bufferView":46,
			"componentType":5126,
			"count":960,
			"max":[
				0.9510578513145447,
				1,
				2
			],
			"min":[
				-1.9510579109191895,
				-2,
				-0.9999999403953552
			],
			"type":"VEC3"
		},
		{
			"bufferView":47,
			"componentType":5126,
			"count":960,
			"type":"VEC3"
		},
		{
			"bufferView":48,
			"componentType":5126,
			"count":960,
			"type":"VEC2"
		},
		{
			"bufferView":49,
			"componentType":5126,
			"count":960,
			"max":[
				0.9510578513145447,
				1,
				2
			],
			"min":[
				-1.9510579109191895,
				-2,
				-0.9999999403953552
			],
			"type":"VEC3"
		},
		{
			"bufferView":50,
			"componentType":5126,
			"count":960,
			"type":"VEC3"
		},
		{
			"bufferView":51,
			"componentType":5126,
			"count":960,
			"type":"VEC2"
		},
		{
			"bufferView":52,
			"componentType":5126,
			"count":960,
			"max":[
				0.9510578513145447,
				1,
				2
			],
			"min":[
				-1.9510579109191895,
				-2,
				-0.9999999403953552
			],
			"type":"VEC3"
		},
		{
			"bufferView":53,
			"componentType":5126,
			"count":960,
			"type":"VEC3"
		},
		{
			"bufferView":54,
			"componentType":5126,
			"count":960,
			"type":"VEC2"
		},
		{
			"bufferView":55,
			"componentType":5126,
			"count":960,
			"max":[
				0.9510578513145447,
				1,
				2
			],
			"min":[
				-1.9510579109191895,
				-2,
				-0.9999999403953552
			],
			"type":"VEC3"
		},
		{
			"bufferView":56,
			"componentType":5126,
			"count":960,
			"type":"VEC3"
		},
		{
			"bufferView":57,
			"componentType":5126,
			"count":960,
			"type":"VEC2"
		},
		{
			"bufferView":58,
			"componentType":5126,
			"count":960,
			"max":[
				0.9510578513145447,
				1,
				2
			],
			"min":[
				-1.9510579109191895,
				-2,
				-0.9999999403953552
			],
			"type":"VEC3"
		},
		{
			"bufferView":59,
			"componentType":5126,
			"count":960,
			"type":"VEC3"
		},
		{
			"bufferView":60,
			"componentType":5126,
			"count":960,
			"type":"VEC2"
		},
		{
			"bufferView":61,
			"componentType":5126,
			"count":960,
			"max":[
				0.9510578513145447,
				1,
				2
			],
			"min":[
				-1.9510579109191895,
				-2,
				-0.9999999403953552
			],
			"type":"VEC3"
		},
		{
			"bufferView":62,
			"componentType":5126,
			"count":960,
			"type":"VEC3"
		},
		{
			"bufferView":63,
			"componentType":5126,
			"count":960,
			"type":"VEC2"
		},
		{
			"bufferView":64,
			"componentType":5126,
			"count":960,
			"max":[
				0.9510578513145447,
				1,
				2
			],
			"min":[
				-1.9510579109191895,
				-2,
				-0.9999999403953552
			],
			"type":"VEC3"
		},
		{
			"bufferView":65,
			"componentType":5126,
			"count":960,
			"type":"VEC3"
		},
		{
			"bufferView":66,
			"componentType":5126,
			"count":960,
			"type":"VEC2"
		},
		{
			"bufferView":67,
			"componentType":5126,
			"count":960,
			"max":[
				0.9510578513145447,
				1,
				2
			],
			"min":[
				-1.9510579109191895,
				-2,
				-0.9999999403953552
			],
			"type":"VEC3"
		},
		{
			"bufferView":68,
			"componentType":5126,
			"count":960,
			"type":"VEC3"
		},
		{
			"bufferView":69,
			"componentType":5126,
			"count":960,
			"type":"VEC2"
		},
		{
			"bufferView":70,
			"componentType":5126,
			"count":960,
			"max":[
				0.9510578513145447,
				1,
				2
			],
			"min":[
				-1.9510579109191895,
				-2,
				-0.9999999403953552
			],
			"type":"VEC3"
		},
		{
			"bufferView":71,
			"componentType":5126,
			"count":960,
			"type":"VEC3"
		},
		{
			"bufferView":72,
			"componentType":5126,
			"count":960,
			"type":"VEC2"
		},
		{
			"bufferView":73,
			"componentType":5126,
			"count":960,
			"max":[
				0.9510578513145447,
				1,
				2
			],
			"min":[
				-1.9510579109191895,
				-2,
				-0.9999999403953552
			],
			"type":"VEC3"
		},
		{
			"bufferView":74,
			"componentType":5126,
			"count":960,
			"type":"VEC3"
		},
		{
			"bufferView":75,
			"componentType":5126,
			"count":960,
			"type":"VEC2"
		},
		{
			"bufferView":76,
			"componentType":5126,
			"count":960,
			"max":[
				0.9510578513145447,
				1,
				2
			],
			"min":[
				-1.9510579109191895,
				-2,
				-0.9999999403953552
			],
			"type":"VEC3"
		},
		{
			"bufferView":77,
			"componentType":5126,
			"count":960,
			"type":"VEC3"
		},
		{
			"bufferView":78,
			"componentType":5126,
			"count":960,
			"type":"VEC2"
		},
		{
			"bufferView":79,
			"componentType":5126,
			"count":960,
			"max":[
				0.9510578513145447,
				1,
				2
			],
			"min":[
				-1.9510579109191895,
				-2,
				-0.9999999403953552
			],
			"type":"VEC3"
		},
		{
			"bufferView":80,
			"componentType":5126,
			"count":960,
			"type":"VEC3"
		},
		{
			"bufferView":81,
			"componentType":5126,
			"count":960,
			"type":"VEC2"
		},
		{
			"bufferView":82,
			"componentType":5126,
			"count":24,
			"max":[
				1,
				1,
				1
			],
			"min":[
				-1,
				-1,
				-1
			],
			"type":"VEC3"
		},
		{
			"bufferView":83,
			"componentType":5126,
			"count":24,
			"type":"VEC3"
		},
		{
			"bufferView":84,
			"componentType":5126,
			"count":24,
			"type":"VEC2"
		},
		{
			"bufferView":85,
			"componentType":5126,
			"count":24,
			"max":[
				1,
				1,
				1
			],
			"min":[
				-1,
				-1,
				-1
			],
			"type":"VEC3"
		},
		{
			"bufferView":86,
			"componentType":5126,
			"count":24,
			"type":"VEC3"
		},
		{
			"bufferView":87,
			"componentType":5126,
			"count":24,
			"type":"VEC2"
		},
		{
			"bufferView":88,
			"componentType":5126,
			"count":24,
			"max":[
				1,
				1,
				1
			],
			"min":[
				-1,
				-1,
				-1
			],
			"type":"VEC3"
		},
		{
			"bufferView":89,
			"componentType":5126,
			"count":24,
			"type":"VEC3"
		},
		{
			"bufferView":90,
			"componentType":5126,
			"count":24,
			"type":"VEC2"
		},
		{
			"bufferView":91,
			"componentType":5126,
			"count":24,
			"max":[
				1,
				1,
				1
			],
			"min":[
				-1,
				-1,
				-1
			],
			"type":"VEC3"
		},
		{
			"bufferView":92,
			"componentType":5126,
			"count":24,
			"type":"VEC3"
		},
		{
			"bufferView":93,
			"componentType":5126,
			"count":24,
			"type":"VEC2"
		},
		{
			"bufferView":94,
			"componentType":5126,
			"count":24,
			"max":[
				1,
				1,
				1
			],
			"min":[
				-1,
				-1,
				-1
			],
			"type":"VEC3"
		},
		{
			"bufferView":95,
			"componentType":5126,
			"count":24,
			"type":"VEC3"
		},
		{
			"bufferView":96,
			"componentType":5126,
			"count":24,
			"type":"VEC2"
		},
		{
			"bufferView":97,
			"componentType":5126,
			"count":64,
			"max":[
				1,
				2.9977617263793945,
				1
			],
			"min":[
				-1,
				-1,
				-1
			],
			"type":"VEC3"
		},
		{
			"bufferView":98,
			"componentType":5126,
			"count":64,
			"type":"VEC3"
		},
		{
			"bufferView":99,
			"componentType":5126,
			"count":64,
			"type":"VEC2"
		},
		{
			"bufferView":100,
			"componentType":5123,
			"count":132,
			"type":"SCALAR"
		},
		{
			"bufferView":101,
			"componentType":5126,
			"count":840,
			"max":[
				0.9510578513145447,
				12.943167686462402,
				3.031099796295166
			],
			"min":[
				-2.1345646381378174,
				-1,
				-1
			],
			"type":"VEC3"
		},
		{
			"bufferView":102,
			"componentType":5126,
			"count":840,
			"type":"VEC3"
		},
		{
			"bufferView":103,
			"componentType":5126,
			"count":840,
			"type":"VEC2"
		},
		{
			"bufferView":104,
			"componentType":5123,
			"count":900,
			"type":"SCALAR"
		},
		{
			"bufferView":105,
			"componentType":5126,
			"count":840,
			"max":[
				0.9510578513145447,
				12.943167686462402,
				3.031099796295166
			],
			"min":[
				-2.1345646381378174,
				-1,
				-1
			],
			"type":"VEC3"
		},
		{
			"bufferView":106,
			"componentType":5126,
			"count":840,
			"type":"VEC3"
		},
		{
			"bufferView":107,
			"componentType":5126,
			"count":840,
			"type":"VEC2"
		},
		{
			"bufferView":108,
			"componentType":5126,
			"count":840,
			"max":[
				0.9510578513145447,
				12.943167686462402,
				3.031099796295166
			],
			"min":[
				-2.1345646381378174,
				-1,
				-1
			],
			"type":"VEC3"
		},
		{
			"bufferView":109,
			"componentType":5126,
			"count":840,
			"type":"VEC3"
		},
		{
			"bufferView":110,
			"componentType":5126,
			"count":840,
			"type":"VEC2"
		},
		{
			"bufferView":111,
			"componentType":5126,
			"count":840,
			"max":[
				0.9510578513145447,
				12.943167686462402,
				3.031099796295166
			],
			"min":[
				-2.1345646381378174,
				-1,
				-1
			],
			"type":"VEC3"
		},
		{
			"bufferView":112,
			"componentType":5126,
			"count":840,
			"type":"VEC3"
		},
		{
			"bufferView":113,
			"componentType":5126,
			"count":840,
			"type":"VEC2"
		},
		{
			"bufferView":114,
			"componentType":5126,
			"count":840,
			"max":[
				0.9510578513145447,
				12.943167686462402,
				3.031099796295166
			],
			"min":[
				-2.1345646381378174,
				-1,
				-1
			],
			"type":"VEC3"
		},
		{
			"bufferView":115,
			"componentType":5126,
			"count":840,
			"type":"VEC3"
		},
		{
			"bufferView":116,
			"componentType":5126,
			"count":840,
			"type":"VEC2"
		},
		{
			"bufferView":117,
			"componentType":5126,
			"count":840,
			"max":[
				0.9510578513145447,
				12.943167686462402,
				3.031099796295166
			],
			"min":[
				-2.1345646381378174,
				-1,
				-1
			],
			"type":"VEC3"
		},
		{
			"bufferView":118,
			"componentType":5126,
			"count":840,
			"type":"VEC3"
		},
		{
			"bufferView":119,
			"componentType":5126,
			"count":840,
			"type":"VEC2"
		},
		{
			"bufferView":120,
			"componentType":5126,
			"count":840,
			"max":[
				0.9510578513145447,
				12.943167686462402,
				3.031099796295166
			],
			"min":[
				-2.1345646381378174,
				-1,
				-1
			],
			"type":"VEC3"
		},
		{
			"bufferView":121,
			"componentType":5126,
			"count":840,
			"type":"VEC3"
		},
		{
			"bufferView":122,
			"componentType":5126,
			"count":840,
			"type":"VEC2"
		},
		{
			"bufferView":123,
			"componentType":5126,
			"count":840,
			"max":[
				0.9510578513145447,
				12.943167686462402,
				3.031099796295166
			],
			"min":[
				-2.1345646381378174,
				-1,
				-1
			],
			"type":"VEC3"
		},
		{
			"bufferView":124,
			"componentType":5126,
			"count":840,
			"type":"VEC3"
		},
		{
			"bufferView":125,
			"componentType":5126,
			"count":840,
			"type":"VEC2"
		},
		{
			"bufferView":126,
			"componentType":5126,
			"count":840,
			"max":[
				0.9510578513145447,
				12.943167686462402,
				3.031099796295166
			],
			"min":[
				-2.1345646381378174,
				-1,
				-1
			],
			"type":"VEC3"
		},
		{
			"bufferView":127,
			"componentType":5126,
			"count":840,
			"type":"VEC3"
		},
		{
			"bufferView":128,
			"componentType":5126,
			"count":840,
			"type":"VEC2"
		},
		{
			"bufferView":129,
			"componentType":5126,
			"count":840,
			"max":[
				0.9510578513145447,
				12.943167686462402,
				3.031099796295166
			],
			"min":[
				-2.1345646381378174,
				-1,
				-1
			],
			"type":"VEC3"
		},
		{
			"bufferView":130,
			"componentType":5126,
			"count":840,
			"type":"VEC3"
		},
		{
			"bufferView":131,
			"componentType":5126,
			"count":840,
			"type":"VEC2"
		},
		{
			"bufferView":132,
			"componentType":5126,
			"count":840,
			"max":[
				0.9510578513145447,
				12.943167686462402,
				3.031099796295166
			],
			"min":[
				-2.1345646381378174,
				-1,
				-1
			],
			"type":"VEC3"
		},
		{
			"bufferView":133,
			"componentType":5126,
			"count":840,
			"type":"VEC3"
		},
		{
			"bufferView":134,
			"componentType":5126,
			"count":840,
			"type":"VEC2"
		},
		{
			"bufferView":135,
			"componentType":5126,
			"count":840,
			"max":[
				0.9510578513145447,
				12.943167686462402,
				3.031099796295166
			],
			"min":[
				-2.1345646381378174,
				-1,
				-1
			],
			"type":"VEC3"
		},
		{
			"bufferView":136,
			"componentType":5126,
			"count":840,
			"type":"VEC3"
		},
		{
			"bufferView":137,
			"componentType":5126,
			"count":840,
			"type":"VEC2"
		},
		{
			"bufferView":138,
			"componentType":5126,
			"count":840,
			"max":[
				0.9510578513145447,
				12.943167686462402,
				3.031099796295166
			],
			"min":[
				-2.1345646381378174,
				-1,
				-1
			],
			"type":"VEC3"
		},
		{
			"bufferView":139,
			"componentType":5126,
			"count":840,
			"type":"VEC3"
		},
		{
			"bufferView":140,
			"componentType":5126,
			"count":840,
			"type":"VEC2"
		},
		{
			"bufferView":141,
			"componentType":5126,
			"count":840,
			"max":[
				0.9510578513145447,
				12.943167686462402,
				3.031099796295166
			],
			"min":[
				-2.1345646381378174,
				-1,
				-1
			],
			"type":"VEC3"
		},
		{
			"bufferView":142,
			"componentType":5126,
			"count":840,
			"type":"VEC3"
		},
		{
			"bufferView":143,
			"componentType":5126,
			"count":840,
			"type":"VEC2"
		},
		{
			"bufferView":144,
			"componentType":5126,
			"count":840,
			"max":[
				0.9510578513145447,
				12.943167686462402,
				3.031099796295166
			],
			"min":[
				-2.1345646381378174,
				-1,
				-1
			],
			"type":"VEC3"
		},
		{
			"bufferView":145,
			"componentType":5126,
			"count":840,
			"type":"VEC3"
		},
		{
			"bufferView":146,
			"componentType":5126,
			"count":840,
			"type":"VEC2"
		},
		{
			"bufferView":147,
			"componentType":5126,
			"count":840,
			"max":[
				0.9510578513145447,
				12.943167686462402,
				3.031099796295166
			],
			"min":[
				-2.1345646381378174,
				-1,
				-1
			],
			"type":"VEC3"
		},
		{
			"bufferView":148,
			"componentType":5126,
			"count":840,
			"type":"VEC3"
		},
		{
			"bufferView":149,
			"componentType":5126,
			"count":840,
			"type":"VEC2"
		},
		{
			"bufferView":150,
			"componentType":5126,
			"count":840,
			"max":[
				0.9510578513145447,
				12.943167686462402,
				3.031099796295166
			],
			"min":[
				-2.1345646381378174,
				-1,
				-1
			],
			"type":"VEC3"
		},
		{
			"bufferView":151,
			"componentType":5126,
			"count":840,
			"type":"VEC3"
		},
		{
			"bufferView":152,
			"componentType":5126,
			"count":840,
			"type":"VEC2"
		},
		{
			"bufferView":153,
			"componentType":5126,
			"count":840,
			"max":[
				0.9510578513145447,
				12.943167686462402,
				3.031099796295166
			],
			"min":[
				-2.1345646381378174,
				-1,
				-1
			],
			"type":"VEC3"
		},
		{
			"bufferView":154,
			"componentType":5126,
			"count":840,
			"type":"VEC3"
		},
		{
			"bufferView":155,
			"componentType":5126,
			"count":840,
			"type":"VEC2"
		},
		{
			"bufferView":156,
			"componentType":5126,
			"count":840,
			"max":[
				0.9510578513145447,
				12.943167686462402,
				3.031099796295166
			],
			"min":[
				-2.1345646381378174,
				-1,
				-1
			],
			"type":"VEC3"
		},
		{
			"bufferView":157,
			"componentType":5126,
			"count":840,
			"type":"VEC3"
		},
		{
			"bufferView":158,
			"componentType":5126,
			"count":840,
			"type":"VEC2"
		},
		{
			"bufferView":159,
			"componentType":5126,
			"count":840,
			"max":[
				0.9510578513145447,
				12.943167686462402,
				3.031099796295166
			],
			"min":[
				-2.1345646381378174,
				-1,
				-1
			],
			"type":"VEC3"
		},
		{
			"bufferView":160,
			"componentType":5126,
			"count":840,
			"type":"VEC3"
		},
		{
			"bufferView":161,
			"componentType":5126,
			"count":840,
			"type":"VEC2"
		},
		{
			"bufferView":162,
			"componentType":5126,
			"count":840,
			"max":[
				0.9510578513145447,
				12.943167686462402,
				3.031099796295166
			],
			"min":[
				-2.1345646381378174,
				-1,
				-1
			],
			"type":"VEC3"
		},
		{
			"bufferView":163,
			"componentType":5126,
			"count":840,
			"type":"VEC3"
		},
		{
			"bufferView":164,
			"componentType":5126,
			"count":840,
			"type":"VEC2"
		},
		{
			"bufferView":165,
			"componentType":5126,
			"count":840,
			"max":[
				0.9510578513145447,
				12.943167686462402,
				3.031099796295166
			],
			"min":[
				-2.1345646381378174,
				-1,
				-1
			],
			"type":"VEC3"
		},
		{
			"bufferView":166,
			"componentType":5126,
			"count":840,
			"type":"VEC3"
		},
		{
			"bufferView":167,
			"componentType":5126,
			"count":840,
			"type":"VEC2"
		},
		{
			"bufferView":168,
			"componentType":5126,
			"count":840,
			"max":[
				0.9510578513145447,
				12.943167686462402,
				3.031099796295166
			],
			"min":[
				-2.1345646381378174,
				-1,
				-1
			],
			"type":"VEC3"
		},
		{
			"bufferView":169,
			"componentType":5126,
			"count":840,
			"type":"VEC3"
		},
		{
			"bufferView":170,
			"componentType":5126,
			"count":840,
			"type":"VEC2"
		},
		{
			"bufferView":171,
			"componentType":5126,
			"count":840,
			"max":[
				0.9510578513145447,
				12.943167686462402,
				3.031099796295166
			],
			"min":[
				-2.1345646381378174,
				-1,
				-1
			],
			"type":"VEC3"
		},
		{
			"bufferView":172,
			"componentType":5126,
			"count":840,
			"type":"VEC3"
		},
		{
			"bufferView":173,
			"componentType":5126,
			"count":840,
			"type":"VEC2"
		},
		{
			"bufferView":174,
			"componentType":5126,
			"count":840,
			"max":[
				0.9510578513145447,
				12.943167686462402,
				3.031099796295166
			],
			"min":[
				-2.1345646381378174,
				-1,
				-1
			],
			"type":"VEC3"
		},
		{
			"bufferView":175,
			"componentType":5126,
			"count":840,
			"type":"VEC3"
		},
		{
			"bufferView":176,
			"componentType":5126,
			"count":840,
			"type":"VEC2"
		},
		{
			"bufferView":177,
			"componentType":5126,
			"count":840,
			"max":[
				0.9510578513145447,
				12.943167686462402,
				3.031099796295166
			],
			"min":[
				-2.1345646381378174,
				-1,
				-1
			],
			"type":"VEC3"
		},
		{
			"bufferView":178,
			"componentType":5126,
			"count":840,
			"type":"VEC3"
		},
		{
			"bufferView":179,
			"componentType":5126,
			"count":840,
			"type":"VEC2"
		},
		{
			"bufferView":180,
			"componentType":5126,
			"count":840,
			"max":[
				0.9510578513145447,
				12.943167686462402,
				3.031099796295166
			],
			"min":[
				-2.1345646381378174,
				-1,
				-1
			],
			"type":"VEC3"
		},
		{
			"bufferView":181,
			"componentType":5126,
			"count":840,
			"type":"VEC3"
		},
		{
			"bufferView":182,
			"componentType":5126,
			"count":840,
			"type":"VEC2"
		},
		{
			"bufferView":183,
			"componentType":5126,
			"count":840,
			"max":[
				0.9510578513145447,
				12.943167686462402,
				3.031099796295166
			],
			"min":[
				-2.1345646381378174,
				-1,
				-1
			],
			"type":"VEC3"
		},
		{
			"bufferView":184,
			"componentType":5126,
			"count":840,
			"type":"VEC3"
		},
		{
			"bufferView":185,
			"componentType":5126,
			"count":840,
			"type":"VEC2"
		},
		{
			"bufferView":186,
			"componentType":5126,
			"count":840,
			"max":[
				0.9510578513145447,
				12.943167686462402,
				3.031099796295166
			],
			"min":[
				-2.1345646381378174,
				-1,
				-1
			],
			"type":"VEC3"
		},
		{
			"bufferView":187,
			"componentType":5126,
			"count":840,
			"type":"VEC3"
		},
		{
			"bufferView":188,
			"componentType":5126,
			"count":840,
			"type":"VEC2"
		},
		{
			"bufferView":189,
			"componentType":5126,
			"count":840,
			"max":[
				0.9510578513145447,
				12.943167686462402,
				3.031099796295166
			],
			"min":[
				-2.1345646381378174,
				-1,
				-1
			],
			"type":"VEC3"
		},
		{
			"bufferView":190,
			"componentType":5126,
			"count":840,
			"type":"VEC3"
		},
		{
			"bufferView":191,
			"componentType":5126,
			"count":840,
			"type":"VEC2"
		},
		{
			"bufferView":192,
			"componentType":5126,
			"count":840,
			"max":[
				0.9510578513145447,
				12.943167686462402,
				3.031099796295166
			],
			"min":[
				-2.1345646381378174,
				-1,
				-1
			],
			"type":"VEC3"
		},
		{
			"bufferView":193,
			"componentType":5126,
			"count":840,
			"type":"VEC3"
		},
		{
			"bufferView":194,
			"componentType":5126,
			"count":840,
			"type":"VEC2"
		},
		{
			"bufferView":195,
			"componentType":5126,
			"count":840,
			"max":[
				0.9510578513145447,
				12.943167686462402,
				3.031099796295166
			],
			"min":[
				-2.1345646381378174,
				-1,
				-1
			],
			"type":"VEC3"
		},
		{
			"bufferView":196,
			"componentType":5126,
			"count":840,
			"type":"VEC3"
		},
		{
			"bufferView":197,
			"componentType":5126,
			"count":840,
			"type":"VEC2"
		},
		{
			"bufferView":198,
			"componentType":5126,
			"count":24,
			"max":[
				1,
				1,
				1
			],
			"min":[
				-1,
				-1,
				-1
			],
			"type":"VEC3"
		},
		{
			"bufferView":199,
			"componentType":5126,
			"count":24,
			"type":"VEC3"
		},
		{
			"bufferView":200,
			"componentType":5126,
			"count":24,
			"type":"VEC2"
		},
		{
			"bufferView":201,
			"componentType":5126,
			"count":24,
			"max":[
				1,
				1,
				1
			],
			"min":[
				-1,
				-1,
				-1
			],
			"type":"VEC3"
		},
		{
			"bufferView":202,
			"componentType":5126,
			"count":24,
			"type":"VEC3"
		},
		{
			"bufferView":203,
			"componentType":5126,
			"count":24,
			"type":"VEC2"
		},
		{
			"bufferView":204,
			"componentType":5126,
			"count":24,
			"max":[
				1,
				1,
				1
			],
			"min":[
				-1,
				-1,
				-1
			],
			"type":"VEC3"
		},
		{
			"bufferView":205,
			"componentType":5126,
			"count":24,
			"type":"VEC3"
		},
		{
			"bufferView":206,
			"componentType":5126,
			"count":24,
			"type":"VEC2"
		},
		{
			"bufferView":207,
			"componentType":5126,
			"count":24,
			"max":[
				1,
				1,
				1
			],
			"min":[
				-1,
				-1,
				-1
			],
			"type":"VEC3"
		},
		{
			"bufferView":208,
			"componentType":5126,
			"count":24,
			"type":"VEC3"
		},
		{
			"bufferView":209,
			"componentType":5126,
			"count":24,
			"type":"VEC2"
		},
		{
			"bufferView":210,
			"componentType":5126,
			"count":24,
			"max":[
				1,
				1,
				1
			],
			"min":[
				-1,
				-1,
				-1
			],
			"type":"VEC3"
		},
		{
			"bufferView":211,
			"componentType":5126,
			"count":24,
			"type":"VEC3"
		},
		{
			"bufferView":212,
			"componentType":5126,
			"count":24,
			"type":"VEC2"
		}
	],
	"bufferViews":[
		{
			"buffer":0,
			"byteLength":11436,
			"byteOffset":0,
			"target":34962
		},
		{
			"buffer":0,
			"byteLength":11436,
			"byteOffset":11436,
			"target":34962
		},
		{
			"buffer":0,
			"byteLength":7624,
			"byteOffset":22872,
			"target":34962
		},
		{
			"buffer":0,
			"byteLength":4800,
			"byteOffset":30496,
			"target":34963
		},
		{
			"buffer":0,
			"byteLength":288,
			"byteOffset":35296,
			"target":34962
		},
		{
			"buffer":0,
			"byteLength":288,
			"byteOffset":35584,
			"target":34962
		},
		{
			"buffer":0,
			"byteLength":192,
			"byteOffset":35872,
			"target":34962
		},
		{
			"buffer":0,
			"byteLength":72,
			"byteOffset":36064,
			"target":34963
		},
		{
			"buffer":0,
			"byteLength":288,
			"byteOffset":36136,
			"target":34962
		},
		{
			"buffer":0,
			"byteLength":288,
			"byteOffset":36424,
			"target":34962
		},
		{
			"buffer":0,
			"byteLength":192,
			"byteOffset":36712,
			"target":34962
		},
		{
			"buffer":0,
			"byteLength":288,
			"byteOffset":36904,
			"target":34962
		},
		{
			"buffer":0,
			"byteLength":288,
			"byteOffset":37192,
			"target":34962
		},
		{
			"buffer":0,
			"byteLength":192,
			"byteOffset":37480,
			"target":34962
		},
		{
			"buffer":0,
			"byteLength":288,
			"byteOffset":37672,
			"target":34962
		},
		{
			"buffer":0,
			"byteLength":288,
			"byteOffset":37960,
			"target":34962
		},
		{
			"buffer":0,
			"byteLength":192,
			"byteOffset":38248,
			"target":34962
		},
		{
			"buffer":0,
			"byteLength":288,
			"byteOffset":38440,
			"target":34962
		},
		{
			"buffer":0,
			"byteLength":288,
			"byteOffset":38728,
			"target":34962
		},
		{
			"buffer":0,
			"byteLength":192,
			"byteOffset":39016,
			"target":34962
		},
		{
			"buffer":0,
			"byteLength":5184,
			"byteOffset":39208,
			"target":34962
		},
		{
			"buffer":0,
			"byteLength":5184,
			"byteOffset":44392,
			"target":34962
		},
		{
			"buffer":0,
			"byteLength":3456,
			"byteOffset":49576,
			"target":34962
		},
		{
			"buffer":0,
			"byteLength":1224,
			"byteOffset":53032,
			"target":34963
		},
		{
			"buffer":0,
			"byteLength":5184,
			"byteOffset":54256,
			"target":34962
		},
		{
			"buffer":0,
			"byteLength":5184,
			"byteOffset":59440,
			"target":34962
		},
		{
			"buffer":0,
			"byteLength":3456,
			"byteOffset":64624,
			"target":34962
		},
		{
			"buffer":0,
			"byteLength":5184,
			"byteOffset":68080,
			"target":34962
		},
		{
			"buffer":0,
			"byteLength":5184,
			"byteOffset":73264,
			"target":34962
		},
		{
			"buffer":0,
			"byteLength":3456,
			"byteOffset":78448,
			"target":34962
		},
		{
			"buffer":0,
			"byteLength":5184,
			"byteOffset":81904,
			"target":34962
		},
		{
			"buffer":0,
			"byteLength":5184,
			"byteOffset":87088,
			"target":34962
		},
		{
			"buffer":0,
			"byteLength":3456,
			"byteOffset":92272,
			"target":34962
		},
		{
			"buffer":0,
			"byteLength":5184,
			"byteOffset":95728,
			"target":34962
		},
		{
			"buffer":0,
			"byteLength":5184,
			"byteOffset":100912,
			"target":34962
		},
		{
			"buffer":0,
			"byteLength":3456,
			"byteOffset":106096,
			"target":34962
		},
		{
			"buffer":0,
			"byteLength":5184,
			"byteOffset":109552,
			"target":34962
		},
		{
			"buffer":0,
			"byteLength":5184,
			"byteOffset":114736,
			"target":34962
		},
		{
			"buffer":0,
			"byteLength":3456,
			"byteOffset":119920,
			"target":34962
		},
		{
			"buffer":0,
			"byteLength":5184,
			"byteOffset":123376,
			"target":34962
		},
		{
			"buffer":0,
			"byteLength":5184,
			"byteOffset":128560,
			"target":34962
		},
		{
			"buffer":0,
			"byteLength":3456,
			"byteOffset":133744,
			"target":34962
		},
		{
			"buffer":0,
			"byteLength":11520,
			"byteOffset":137200,
			"target":34962
		},
		{
			"buffer":0,
			"byteLength":11520,
			"byteOffset":148720,
			"target":34962
		},
		{
			"buffer":0,
			"byteLength":7680,
			"byteOffset":160240,
			"target":34962
		},
		{
			"buffer":0,
			"byteLength":1920,
			"byteOffset":167920,
			"target":34963
		},
		{
			"buffer":0,
			"byteLength":11520,
			"byteOffset":169840,
			"target":34962
		},
		{
			"buffer":0,
			"byteLength":11520,
			"byteOffset":181360,
			"target":34962
		},
		{
			"buffer":0,
			"byteLength":7680,
			"byteOffset":192880,
			"target":34962
		},
		{
			"buffer":0,
			"byteLength":11520,
			"byteOffset":200560,
			"target":34962
		},
		{
			"buffer":0,
			"byteLength":11520,
			"byteOffset":212080,
			"target":34962
		},
		{
			"buffer":0,
			"byteLength":7680,
			"byteOffset":223600,
			"target":34962
		},
		{
			"buffer":0,
			"byteLength":11520,
			"byteOffset":231280,
			"target":34962
		},
		{
			"buffer":0,
			"byteLength":11520,
			"byteOffset":242800,
			"target":34962
		},
		{
			"buffer":0,
			"byteLength":7680,
			"byteOffset":254320,
			"target":34962
		},
		{
			"buffer":0,
			"byteLength":11520,
			"byteOffset":262000,
			"target":34962
		},
		{
			"buffer":0,
			"byteLength":11520,
			"byteOffset":273520,
			"target":34962
		},
		{
			"buffer":0,
			"byteLength":7680,
			"byteOffset":285040,
			"target":34962
		},
		{
			"buffer":0,
			"byteLength":11520,
			"byteOffset":292720,
			"target":34962
		},
		{
			"buffer":0,
			"byteLength":11520,
			"byteOffset":304240,
			"target":34962
		},
		{
			"buffer":0,
			"byteLength":7680,
			"byteOffset":315760,
			"target":34962
		},
		{
			"buffer":0,
			"byteLength":11520,
			"byteOffset":323440,
			"target":34962
		},
		{
			"buffer":0,
			"byteLength":11520,
			"byteOffset":334960,
			"target":34962
		},
		{
			"buffer":0,
			"byteLength":7680,
			"byteOffset":346480,
			"target":34962
		},
		{
			"buffer":0,
			"byteLength":11520,
			"byteOffset":354160,
			"target":34962
		},
		{
			"buffer":0,
			"byteLength":11520,
			"byteOffset":365680,
			"target":34962
		},
		{
			"buffer":0,
			"byteLength":7680,
			"byteOffset":377200,
			"target":34962
		},
		{
			"buffer":0,
			"byteLength":11520,
			"byteOffset":384880,
			"target":34962
		},
		{
			"buffer":0,
			"byteLength":11520,
			"byteOffset":396400,
			"target":34962
		},
		{
			"buffer":0,
			"byteLength":7680,
			"byteOffset":407920,
			"target":34962
		},
		{
			"buffer":0,
			"byteLength":11520,
			"byteOffset":415600,
			"target":34962
		},
		{
			"buffer":0,
			"byteLength":11520,
			"byteOffset":427120,
			"target":34962
		},
		{
			"buffer":0,
			"byteLength":7680,
			"byteOffset":438640,
			"target":34962
		},
		{
			"buffer":0,
			"byteLength":11520,
			"byteOffset":446320,
			"target":34962
		},
		{
			"buffer":0,
			"byteLength":11520,
			"byteOffset":457840,
			"target":34962
		},
		{
			"buffer":0,
			"byteLength":7680,
			"byteOffset":469360,
			"target":34962
		},
		{
			"buffer":0,
			"byteLength":11520,
			"byteOffset":477040,
			"target":34962
		},
		{
			"buffer":0,
			"byteLength":11520,
			"byteOffset":488560,
			"target":34962
		},
		{
			"buffer":0,
			"byteLength":7680,
			"byteOffset":500080,
			"target":34962
		},
		{
			"buffer":0,
			"byteLength":11520,
			"byteOffset":507760,
			"target":34962
		},
		{
			"buffer":0,
			"byteLength":11520,
			"byteOffset":519280,
			"target":34962
		},
		{
			"buffer":0,
			"byteLength":7680,
			"byteOffset":530800,
			"target":34962
		},
		{
			"buffer":0,
			"byteLength":288,
			"byteOffset":538480,
			"target":34962
		},
		{
			"buffer":0,
			"byteLength":288,
			"byteOffset":538768,
			"target":34962
		},
		{
			"buffer":0,
			"byteLength":192,
			"byteOffset":539056,
			"target":34962
		},
		{
			"buffer":0,
			"byteLength":288,
			"byteOffset":539248,
			"target":34962
		},
		{
			"buffer":0,
			"byteLength":288,
			"byteOffset":539536,
			"target":34962
		},
		{
			"buffer":0,
			"byteLength":192,
			"byteOffset":539824,
			"target":34962
		},
		{
			"buffer":0,
			"byteLength":288,
			"byteOffset":540016,
			"target":34962
		},
		{
			"buffer":0,
			"byteLength":288,
			"byteOffset":540304,
			"target":34962
		},
		{
			"buffer":0,
			"byteLength":192,
			"byteOffset":540592,
			"target":34962
		},
		{
			"buffer":0,
			"byteLength":288,
			"byteOffset":540784,
			"target":34962
		},
		{
			"buffer":0,
			"byteLength":288,
			"byteOffset":541072,
			"target":34962
		},
		{
			"buffer":0,
			"byteLength":192,
			"byteOffset":541360,
			"target":34962
		},
		{
			"buffer":0,
			"byteLength":288,
			"byteOffset":541552,
			"target":34962
		},
		{
			"buffer":0,
			"byteLength":288,
			"byteOffset":541840,
			"target":34962
		},
		{
			"buffer":0,
			"byteLength":192,
			"byteOffset":542128,
			"target":34962
		},
		{
			"buffer":0,
			"byteLength":768,
			"byteOffset":542320,
			"target":34962
		},
		{
			"buffer":0,
			"byteLength":768,
			"byteOffset":543088,
			"target":34962
		},
		{
			"buffer":0,
			"byteLength":512,
			"byteOffset":543856,
			"target":34962
		},
		{
			"buffer":0,
			"byteLength":264,
			"byteOffset":544368,
			"target":34963
		},
		{
			"buffer":0,
			"byteLength":10080,
			"byteOffset":544632,
			"target":34962
		},
		{
			"buffer":0,
			"byteLength":10080,
			"byteOffset":554712,
			"target":34962
		},
		{
			"buffer":0,
			"byteLength":6720,
			"byteOffset":564792,
			"target":34962
		},
		{
			"buffer":0,
			"byteLength":1800,
			"byteOffset":571512,
			"target":34963
		},
		{
			"buffer":0,
			"byteLength":10080,
			"byteOffset":573312,
			"target":34962
		},
		{
			"buffer":0,
			"byteLength":10080,
			"byteOffset":583392,
			"target":34962
		},
		{
			"buffer":0,
			"byteLength":6720,
			"byteOffset":593472,
			"target":34962
		},
		{
			"buffer":0,
			"byteLength":10080,
			"byteOffset":600192,
			"target":34962
		},
		{
			"buffer":0,
			"byteLength":10080,
			"byteOffset":610272,
			"target":34962
		},
		{
			"buffer":0,
			"byteLength":6720,
			"byteOffset":620352,
			"target":34962
		},
		{
			"buffer":0,
			"byteLength":10080,
			"byteOffset":627072,
			"target":34962
		},
		{
			"buffer":0,
			"byteLength":10080,
			"byteOffset":637152,
			"target":34962
		},
		{
			"buffer":0,
			"byteLength":6720,
			"byteOffset":647232,
			"target":34962
		},
		{
			"buffer":0,
			"byteLength":10080,
			"byteOffset":653952,
			"target":34962
		},
		{
			"buffer":0,
			"byteLength":10080,
			"byteOffset":664032,
			"target":34962
		},
		{
			"buffer":0,
			"byteLength":6720,
			"byteOffset":674112,
			"target":34962
		},
		{
			"buffer":0,
			"byteLength":10080,
			"byteOffset":680832,
			"target":34962
		},
		{
			"buffer":0,
			"byteLength":10080,
			"byteOffset":690912,
			"target":34962
		},
		{
			"buffer":0,
			"byteLength":6720,
			"byteOffset":700992,
			"target":34962
		},
		{
			"buffer":0,
			"byteLength":10080,
			"byteOffset":707712,
			"target":34962
		},
		{
			"buffer":0,
			"byteLength":10080,
			"byteOffset":717792,
			"target":34962
		},
		{
			"buffer":0,
			"byteLength":6720,
			"byteOffset":727872,
			"target":34962
		},
		{
			"buffer":0,
			"byteLength":10080,
			"byteOffset":734592,
			"target":34962
		},
		{
			"buffer":0,
			"byteLength":10080,
			"byteOffset":744672,
			"target":34962
		},
		{
			"buffer":0,
			"byteLength":6720,
			"byteOffset":754752,
			"target":34962
		},
		{
			"buffer":0,
			"byteLength":10080,
			"byteOffset":761472,
			"target":34962
		},
		{
			"buffer":0,
			"byteLength":10080,
			"byteOffset":771552,
			"target":34962
		},
		{
			"buffer":0,
			"byteLength":6720,
			"byteOffset":781632,
			"target":34962
		},
		{
			"buffer":0,
			"byteLength":10080,
			"byteOffset":788352,
			"target":34962
		},
		{
			"buffer":0,
			"byteLength":10080,
			"byteOffset":798432,
			"target":34962
		},
		{
			"buffer":0,
			"byteLength":6720,
			"byteOffset":808512,
			"target":34962
		},
		{
			"buffer":0,
			"byteLength":10080,
			"byteOffset":815232,
			"target":34962
		},
		{
			"buffer":0,
			"byteLength":10080,
			"byteOffset":825312,
			"target":34962
		},
		{
			"buffer":0,
			"byteLength":6720,
			"byteOffset":835392,
			"target":34962
		},
		{
			"buffer":0,
			"byteLength":10080,
			"byteOffset":842112,
			"target":34962
		},
		{
			"buffer":0,
			"byteLength":10080,
			"byteOffset":852192,
			"target":34962
		},
		{
			"buffer":0,
			"byteLength":6720,
			"byteOffset":862272,
			"target":34962
		},
		{
			"buffer":0,
			"byteLength":10080,
			"byteOffset":868992,
			"target":34962
		},
		{
			"buffer":0,
			"byteLength":10080,
			"byteOffset":879072,
			"target":34962
		},
		{
			"buffer":0,
			"byteLength":6720,
			"byteOffset":889152,
			"target":34962
		},
		{
			"buffer":0,
			"byteLength":10080,
			"byteOffset":895872,
			"target":34962
		},
		{
			"buffer":0,
			"byteLength":10080,
			"byteOffset":905952,
			"target":34962
		},
		{
			"buffer":0,
			"byteLength":6720,
			"byteOffset":916032,
			"target":34962
		},
		{
			"buffer":0,
			"byteLength":10080,
			"byteOffset":922752,
			"target":34962
		},
		{
			"buffer":0,
			"byteLength":10080,
			"byteOffset":932832,
			"target":34962
		},
		{
			"buffer":0,
			"byteLength":6720,
			"byteOffset":942912,
			"target":34962
		},
		{
			"buffer":0,
			"byteLength":10080,
			"byteOffset":949632,
			"target":34962
		},
		{
			"buffer":0,
			"byteLength":10080,
			"byteOffset":959712,
			"target":34962
		},
		{
			"buffer":0,
			"byteLength":6720,
			"byteOffset":969792,
			"target":34962
		},
		{
			"buffer":0,
			"byteLength":10080,
			"byteOffset":976512,
			"target":34962
		},
		{
			"buffer":0,
			"byteLength":10080,
			"byteOffset":986592,
			"target":34962
		},
		{
			"buffer":0,
			"byteLength":6720,
			"byteOffset":996672,
			"target":34962
		},
		{
			"buffer":0,
			"byteLength":10080,
			"byteOffset":1003392,
			"target":34962
		},
		{
			"buffer":0,
			"byteLength":10080,
			"byteOffset":1013472,
			"target":34962
		},
		{
			"buffer":0,
			"byteLength":6720,
			"byteOffset":1023552,
			"target":34962
		},
		{
			"buffer":0,
			"byteLength":10080,
			"byteOffset":1030272,
			"target":34962
		},
		{
			"buffer":0,
			"byteLength":10080,
			"byteOffset":1040352,
			"target":34962
		},
		{
			"buffer":0,
			"byteLength":6720,
			"byteOffset":1050432,
			"target":34962
		},
		{
			"buffer":0,
			"byteLength":10080,
			"byteOffset":1057152,
			"target":34962
		},
		{
			"buffer":0,
			"byteLength":10080,
			"byteOffset":1067232,
			"target":34962
		},
		{
			"buffer":0,
			"byteLength":6720,
			"byteOffset":1077312,
			"target":34962
		},
		{
			"buffer":0,
			"byteLength":10080,
			"byteOffset":1084032,
			"target":34962
		},
		{
			"buffer":0,
			"byteLength":10080,
			"byteOffset":1094112,
			"target":34962
		},
		{
			"buffer":0,
			"byteLength":6720,
			"byteOffset":1104192,
			"target":34962
		},
		{
			"buffer":0,
			"byteLength":10080,
			"byteOffset":1110912,
			"target":34962
		},
		{
			"buffer":0,
			"byteLength":10080,
			"byteOffset":1120992,
			"target":34962
		},
		{
			"buffer":0,
			"byteLength":6720,
			"byteOffset":1131072,
			"target":34962
		},
		{
			"buffer":0,
			"byteLength":10080,
			"byteOffset":1137792,
			"target":34962
		},
		{
			"buffer":0,
			"byteLength":10080,
			"byteOffset":1147872,
			"target":34962
		},
		{
			"buffer":0,
			"byteLength":6720,
			"byteOffset":1157952,
			"target":34962
		},
		{
			"buffer":0,
			"byteLength":10080,
			"byteOffset":1164672,
			"target":34962
		},
		{
			"buffer":0,
			"byteLength":10080,
			"byteOffset":1174752,
			"target":34962
		},
		{
			"buffer":0,
			"byteLength":6720,
			"byteOffset":1184832,
			"target":34962
		},
		{
			"buffer":0,
			"byteLength":10080,
			"byteOffset":1191552,
			"target":34962
		},
		{
			"buffer":0,
			"byteLength":10080,
			"byteOffset":1201632,
			"target":34962
		},
		{
			"buffer":0,
			"byteLength":6720,
			"byteOffset":1211712,
			"target":34962
		},
		{
			"buffer":0,
			"byteLength":10080,
			"byteOffset":1218432,
			"target":34962
		},
		{
			"buffer":0,
			"byteLength":10080,
			"byteOffset":1228512,
			"target":34962
		},
		{
			"buffer":0,
			"byteLength":6720,
			"byteOffset":1238592,
			"target":34962
		},
		{
			"buffer":0,
			"byteLength":10080,
			"byteOffset":1245312,
			"target":34962
		},
		{
			"buffer":0,
			"byteLength":10080,
			"byteOffset":1255392,
			"target":34962
		},
		{
			"buffer":0,
			"byteLength":6720,
			"byteOffset":1265472,
			"target":34962
		},
		{
			"buffer":0,
			"byteLength":10080,
			"byteOffset":1272192,
			"target":34962
		},
		{
			"buffer":0,
			"byteLength":10080,
			"byteOffset":1282272,
			"target":34962
		},
		{
			"buffer":0,
			"byteLength":6720,
			"byteOffset":1292352,
			"target":34962
		},
		{
			"buffer":0,
			"byteLength":10080,
			"byteOffset":1299072,
			"target":34962
		},
		{
			"buffer":0,
			"byteLength":10080,
			"byteOffset":1309152,
			"target":34962
		},
		{
			"buffer":0,
			"byteLength":6720,
			"byteOffset":1319232,
			"target":34962
		},
		{
			"buffer":0,
			"byteLength":10080,
			"byteOffset":1325952,
			"target":34962
		},
		{
			"buffer":0,
			"byteLength":10080,
			"byteOffset":1336032,
			"target":34962
		},
		{
			"buffer":0,
			"byteLength":6720,
			"byteOffset":1346112,
			"target":34962
		},
		{
			"buffer":0,
			"byteLength":10080,
			"byteOffset":1352832,
			"target":34962
		},
		{
			"buffer":0,
			"byteLength":10080,
			"byteOffset":1362912,
			"target":34962
		},
		{
			"buffer":0,
			"byteLength":6720,
			"byteOffset":1372992,
			"target":34962
		},
		{
			"buffer":0,
			"byteLength":10080,
			"byteOffset":1379712,
			"target":34962
		},
		{
			"buffer":0,
			"byteLength":10080,
			"byteOffset":1389792,
			"target":34962
		},
		{
			"buffer":0,
			"byteLength":6720,
			"byteOffset":1399872,
			"target":34962
		},
		{
			"buffer":0,
			"byteLength":288,
			"byteOffset":1406592,
			"target":34962
		},
		{
			"buffer":0,
			"byteLength":288,
			"byteOffset":1406880,
			"target":34962
		},
		{
			"buffer":0,
			"byteLength":192,
			"byteOffset":1407168,
			"target":34962
		},
		{
			"buffer":0,
			"byteLength":288,
			"byteOffset":1407360,
			"target":34962
		},
		{
			"buffer":0,
			"byteLength":288,
			"byteOffset":1407648,
			"target":34962
		},
		{
			"buffer":0,
			"byteLength":192,
			"byteOffset":1407936,
			"target":34962
		},
		{
			"buffer":0,
			"byteLength":288,
			"byteOffset":1408128,
			"target":34962
		},
		{
			"buffer":0,
			"byteLength":288,
			"byteOffset":1408416,
			"target":34962
		},
		{
			"buffer":0,
			"byteLength":192,
			"byteOffset":1408704,
			"target":34962
		},
		{
			"buffer":0,
			"byteLength":288,
			"byteOffset":1408896,
			"target":34962
		},
		{
			"buffer":0,
			"byteLength":288,
			"byteOffset":1409184,
			"target":34962
		},
		{
			"buffer":0,
			"byteLength":192,
			"byteOffset":1409472,
			"target":34962
		},
		{
			"buffer":0,
			"byteLength":288,
			"byteOffset":1409664,
			"target":34962
		},
		{
			"buffer":0,
			"byteLength":288,
			"byteOffset":1409952,
			"target":34962
		},
		{
			"buffer":0,
			"byteLength":192,
			"byteOffset":1410240,
			"target":34962
		}
	],
	"buffers":[
		{
			"byteLength":1410432,
			"uri":"outdoor_map_6_8_25.bin"
		}
	]
}
