{
	"asset":{
		"generator":"Khronos glTF Blender I/O v4.3.47",
		"version":"2.0"
	},
	"extensionsUsed":[
		"KHR_materials_specular",
		"KHR_materials_ior"
	],
	"scene":0,
	"scenes":[
		{
			"name":"Scene",
			"nodes":[
				0,
				1,
				2,
				3,
				4,
				5,
				6,
				7
			]
		}
	],
	"nodes":[
		{
			"mesh":0,
			"name":"Cylinder"
		},
		{
			"mesh":1,
			"name":"Cube",
			"rotation":[
				-0.11042948812246323,
				0.06189549341797829,
				0.19986897706985474,
				0.9716103672981262
			],
			"translation":[
				2.1377434730529785,
				2.7204713821411133,
				0.08537846803665161
			]
		},
		{
			"mesh":2,
			"name":"LeftCube",
			"rotation":[
				-0.855796217918396,
				0.2271771878004074,
				-0.4642482101917267,
				0.021840156987309456
			],
			"translation":[
				-2.5309970378875732,
				2.7861311435699463,
				-2.0854153633117676
			]
		},
		{
			"mesh":3,
			"name":"LeftGround",
			"rotation":[
				0.17896650731563568,
				0.5642796754837036,
				-0.13586197793483734,
				0.7944186329841614
			],
			"translation":[
				-8.691887855529785,
				1.992058277130127,
				-10.097490310668945
			]
		},
		{
			"mesh":4,
			"name":"RightGround",
			"rotation":[
				-0.03185897693037987,
				0.5878846645355225,
				0.10042701661586761,
				0.8020542860031128
			],
			"translation":[
				15.006819725036621,
				0.8832097053527832,
				-10.097490310668945
			]
		},
		{
			"mesh":5,
			"name":"GrillSphere",
			"rotation":[
				0.016258113086223602,
				0.27418217062950134,
				0.031862229108810425,
				0.9610123038291931
			],
			"translation":[
				-7.910654067993164,
				4.750380992889404,
				-5.14008903503418
			]
		},
		{
			"mesh":6,
			"name":"Pillar",
			"rotation":[
				0.0003070079255849123,
				0.5836678743362427,
				0.08939416706562042,
				0.8070566654205322
			],
			"translation":[
				15.622032165527344,
				9.248448371887207,
				-2.5463502407073975
			]
		},
		{
			"mesh":7,
			"name":"Cone",
			"rotation":[
				0.186799556016922,
				0.08536358922719955,
				-0.24258163571357727,
				0.9481420516967773
			],
			"translation":[
				-21.61560821533203,
				11.173826217651367,
				-12.132112503051758
			]
		}
	],
	"materials":[
		{
			"doubleSided":true,
			"extensions":{
				"KHR_materials_specular":{
					"specularFactor":0.07999999821186066
				},
				"KHR_materials_ior":{
					"ior":1.4500000476837158
				}
			},
			"name":"Default.047",
			"pbrMetallicRoughness":{
				"baseColorFactor":[
					0.47999998927116394,
					0.47999998927116394,
					0.47999998927116394,
					1
				],
				"metallicFactor":0,
				"roughnessFactor":0.494035542011261
			}
		},
		{
			"doubleSided":true,
			"extensions":{
				"KHR_materials_specular":{
					"specularFactor":0.07999999821186066
				},
				"KHR_materials_ior":{
					"ior":1.4500000476837158
				}
			},
			"name":"Default.039",
			"pbrMetallicRoughness":{
				"baseColorFactor":[
					0.47999998927116394,
					0.47999998927116394,
					0.47999998927116394,
					1
				],
				"metallicFactor":0,
				"roughnessFactor":0.494035542011261
			}
		}
	],
	"meshes":[
		{
			"name":"Cylinder",
			"primitives":[
				{
					"attributes":{
						"POSITION":0,
						"NORMAL":1,
						"TEXCOORD_0":2
					},
					"indices":3
				}
			]
		},
		{
			"name":"Cube",
			"primitives":[
				{
					"attributes":{
						"POSITION":4,
						"NORMAL":5,
						"TEXCOORD_0":6
					},
					"indices":7
				}
			]
		},
		{
			"name":"Cube.001",
			"primitives":[
				{
					"attributes":{
						"POSITION":8,
						"NORMAL":9,
						"TEXCOORD_0":10
					},
					"indices":7
				}
			]
		},
		{
			"name":"Icosphere.004",
			"primitives":[
				{
					"attributes":{
						"POSITION":11,
						"NORMAL":12,
						"TEXCOORD_0":13
					},
					"indices":14
				}
			]
		},
		{
			"name":"Icosphere.005",
			"primitives":[
				{
					"attributes":{
						"POSITION":15,
						"NORMAL":16,
						"TEXCOORD_0":17
					},
					"indices":14
				}
			]
		},
		{
			"name":"KB_Cap_Mesh",
			"primitives":[
				{
					"attributes":{
						"POSITION":18,
						"NORMAL":19,
						"TEXCOORD_0":20
					},
					"indices":21,
					"material":0
				}
			]
		},
		{
			"name":"KB_Arm_02_Extension",
			"primitives":[
				{
					"attributes":{
						"POSITION":22,
						"NORMAL":23,
						"TEXCOORD_0":24
					},
					"indices":25,
					"material":1
				}
			]
		},
		{
			"name":"Cone",
			"primitives":[
				{
					"attributes":{
						"POSITION":26,
						"NORMAL":27
					},
					"indices":28
				}
			]
		}
	],
	"accessors":[
		{
			"bufferView":0,
			"componentType":5126,
			"count":130,
			"max":[
				1,
				1,
				1
			],
			"min":[
				-1,
				-1,
				-1
			],
			"type":"VEC3"
		},
		{
			"bufferView":1,
			"componentType":5126,
			"count":130,
			"type":"VEC3"
		},
		{
			"bufferView":2,
			"componentType":5126,
			"count":130,
			"type":"VEC2"
		},
		{
			"bufferView":3,
			"componentType":5123,
			"count":372,
			"type":"SCALAR"
		},
		{
			"bufferView":4,
			"componentType":5126,
			"count":24,
			"max":[
				2.6400654315948486,
				0.6888819932937622,
				0.6888819932937622
			],
			"min":[
				-2.6400654315948486,
				-0.6888819932937622,
				-0.6888819932937622
			],
			"type":"VEC3"
		},
		{
			"bufferView":5,
			"componentType":5126,
			"count":24,
			"type":"VEC3"
		},
		{
			"bufferView":6,
			"componentType":5126,
			"count":24,
			"type":"VEC2"
		},
		{
			"bufferView":7,
			"componentType":5123,
			"count":36,
			"type":"SCALAR"
		},
		{
			"bufferView":8,
			"componentType":5126,
			"count":24,
			"max":[
				2.6400654315948486,
				0.6888819932937622,
				0.6888819932937622
			],
			"min":[
				-2.6400654315948486,
				-0.6888819932937622,
				-0.6888819932937622
			],
			"type":"VEC3"
		},
		{
			"bufferView":9,
			"componentType":5126,
			"count":24,
			"type":"VEC3"
		},
		{
			"bufferView":10,
			"componentType":5126,
			"count":24,
			"type":"VEC2"
		},
		{
			"bufferView":11,
			"componentType":5126,
			"count":15360,
			"max":[
				20.75633430480957,
				3.6965348720550537,
				20.455055236816406
			],
			"min":[
				-19.094701766967773,
				-15.201512336730957,
				-19.138734817504883
			],
			"type":"VEC3"
		},
		{
			"bufferView":12,
			"componentType":5126,
			"count":15360,
			"type":"VEC3"
		},
		{
			"bufferView":13,
			"componentType":5126,
			"count":15360,
			"type":"VEC2"
		},
		{
			"bufferView":14,
			"componentType":5123,
			"count":23040,
			"type":"SCALAR"
		},
		{
			"bufferView":15,
			"componentType":5126,
			"count":15360,
			"max":[
				20.75633430480957,
				3.6965348720550537,
				20.455055236816406
			],
			"min":[
				-19.094701766967773,
				-15.201512336730957,
				-19.138734817504883
			],
			"type":"VEC3"
		},
		{
			"bufferView":16,
			"componentType":5126,
			"count":15360,
			"type":"VEC3"
		},
		{
			"bufferView":17,
			"componentType":5126,
			"count":15360,
			"type":"VEC2"
		},
		{
			"bufferView":18,
			"componentType":5126,
			"count":847959,
			"max":[
				3.223869562149048,
				3.223870277404785,
				0.707593560218811
			],
			"min":[
				-3.223869562149048,
				-3.223870277404785,
				-3.517568349838257
			],
			"type":"VEC3"
		},
		{
			"bufferView":19,
			"componentType":5126,
			"count":847959,
			"type":"VEC3"
		},
		{
			"bufferView":20,
			"componentType":5126,
			"count":847959,
			"type":"VEC2"
		},
		{
			"bufferView":21,
			"componentType":5125,
			"count":1555992,
			"type":"SCALAR"
		},
		{
			"bufferView":22,
			"componentType":5126,
			"count":67668,
			"max":[
				2.515349864959717,
				5.600275993347168,
				2.5101184844970703
			],
			"min":[
				-2.515350818634033,
				-5.615312576293945,
				-2.510143518447876
			],
			"type":"VEC3"
		},
		{
			"bufferView":23,
			"componentType":5126,
			"count":67668,
			"type":"VEC3"
		},
		{
			"bufferView":24,
			"componentType":5126,
			"count":67668,
			"type":"VEC2"
		},
		{
			"bufferView":25,
			"componentType":5125,
			"count":151932,
			"type":"SCALAR"
		},
		{
			"bufferView":26,
			"componentType":5126,
			"count":128,
			"max":[
				1,
				1,
				1
			],
			"min":[
				-1,
				-1,
				-1
			],
			"type":"VEC3"
		},
		{
			"bufferView":27,
			"componentType":5126,
			"count":128,
			"type":"VEC3"
		},
		{
			"bufferView":28,
			"componentType":5123,
			"count":186,
			"type":"SCALAR"
		}
	],
	"bufferViews":[
		{
			"buffer":0,
			"byteLength":1560,
			"byteOffset":0,
			"target":34962
		},
		{
			"buffer":0,
			"byteLength":1560,
			"byteOffset":1560,
			"target":34962
		},
		{
			"buffer":0,
			"byteLength":1040,
			"byteOffset":3120,
			"target":34962
		},
		{
			"buffer":0,
			"byteLength":744,
			"byteOffset":4160,
			"target":34963
		},
		{
			"buffer":0,
			"byteLength":288,
			"byteOffset":4904,
			"target":34962
		},
		{
			"buffer":0,
			"byteLength":288,
			"byteOffset":5192,
			"target":34962
		},
		{
			"buffer":0,
			"byteLength":192,
			"byteOffset":5480,
			"target":34962
		},
		{
			"buffer":0,
			"byteLength":72,
			"byteOffset":5672,
			"target":34963
		},
		{
			"buffer":0,
			"byteLength":288,
			"byteOffset":5744,
			"target":34962
		},
		{
			"buffer":0,
			"byteLength":288,
			"byteOffset":6032,
			"target":34962
		},
		{
			"buffer":0,
			"byteLength":192,
			"byteOffset":6320,
			"target":34962
		},
		{
			"buffer":0,
			"byteLength":184320,
			"byteOffset":6512,
			"target":34962
		},
		{
			"buffer":0,
			"byteLength":184320,
			"byteOffset":190832,
			"target":34962
		},
		{
			"buffer":0,
			"byteLength":122880,
			"byteOffset":375152,
			"target":34962
		},
		{
			"buffer":0,
			"byteLength":46080,
			"byteOffset":498032,
			"target":34963
		},
		{
			"buffer":0,
			"byteLength":184320,
			"byteOffset":544112,
			"target":34962
		},
		{
			"buffer":0,
			"byteLength":184320,
			"byteOffset":728432,
			"target":34962
		},
		{
			"buffer":0,
			"byteLength":122880,
			"byteOffset":912752,
			"target":34962
		},
		{
			"buffer":0,
			"byteLength":10175508,
			"byteOffset":1035632,
			"target":34962
		},
		{
			"buffer":0,
			"byteLength":10175508,
			"byteOffset":11211140,
			"target":34962
		},
		{
			"buffer":0,
			"byteLength":6783672,
			"byteOffset":21386648,
			"target":34962
		},
		{
			"buffer":0,
			"byteLength":6223968,
			"byteOffset":28170320,
			"target":34963
		},
		{
			"buffer":0,
			"byteLength":812016,
			"byteOffset":34394288,
			"target":34962
		},
		{
			"buffer":0,
			"byteLength":812016,
			"byteOffset":35206304,
			"target":34962
		},
		{
			"buffer":0,
			"byteLength":541344,
			"byteOffset":36018320,
			"target":34962
		},
		{
			"buffer":0,
			"byteLength":607728,
			"byteOffset":36559664,
			"target":34963
		},
		{
			"buffer":0,
			"byteLength":1536,
			"byteOffset":37167392,
			"target":34962
		},
		{
			"buffer":0,
			"byteLength":1536,
			"byteOffset":37168928,
			"target":34962
		},
		{
			"buffer":0,
			"byteLength":372,
			"byteOffset":37170464,
			"target":34963
		}
	],
	"buffers":[
		{
			"byteLength":37170836,
			"uri":"scene.bin"
		}
	]
}
